# 3ds Max Wavefront OBJ Exporter v0.97b - (c)2007 guruware
# File Created: 06.09.2017 17:15:11

mtllib Brick.mtl

#
# object Box001
#

v  386025.7813 6087.7104 -1253142.8750
v  963561.8750 6087.7104 -1202615.0000
v  963561.8750 146303.2656 -1202615.0000
v  386025.7813 146303.2656 -1253142.8750
v  969431.2500 6087.7104 -1206502.2500
v  992627.0000 6087.7104 -1471629.8750
v  992627.0000 146303.2656 -1471629.8750
v  969431.2500 146303.2656 -1206502.2500
v  987521.7500 6087.7104 -1476477.3750
v  409985.6563 6087.7104 -1527005.2500
v  409985.6563 146303.2656 -1527005.2500
v  987521.7500 146303.2656 -1476477.3750
v  404116.2188 6087.7104 -1523118.0000
v  380920.5313 6087.7104 -1257990.3750
v  380920.5313 146303.2656 -1257990.3750
v  404116.2188 146303.2656 -1523118.0000
v  383034.6875 2663.9861 -1254504.7500
v  386121.3125 1522.7446 -1254234.7500
v  963943.9375 1.0894 -1206982.3750
v  966815.6250 1522.7448 -1204255.7500
v  963657.3750 1522.7446 -1203706.8750
v  405702.9688 2663.9858 -1525454.6250
v  405488.0625 1522.7446 -1522997.8750
v  987139.6250 1.0894 -1472110.0000
v  990441.1250 1522.7446 -1474296.6250
v  991255.1250 1522.7446 -1471750.0000
v  383034.6875 149727.0781 -1254504.7500
v  382005.8125 146303.2656 -1254594.7500
v  967844.5000 149726.9688 -1204165.6250
v  967772.8750 146303.2656 -1203346.7500
v  405702.9688 149726.9688 -1525454.6250
v  405774.6250 146303.2656 -1526273.5000
v  990512.8125 149727.0781 -1475115.5000
v  991541.6875 146303.2656 -1475025.5000
v  409603.5625 1.0894 -1522637.8750
v  386407.8750 1.0894 -1257510.2500
v  382292.3750 1522.7446 -1257870.2500
v  987426.1875 1522.7446 -1475385.5000
v  409890.1250 1522.7446 -1525913.3750
v  968059.4375 1522.7446 -1206622.3750
v  963657.3750 150868.2031 -1203706.8750
v  963943.9375 152389.8906 -1206982.3750
v  386407.8750 152389.8906 -1257510.2500
v  386121.3125 150868.2500 -1254234.7500
v  991255.1250 150868.3281 -1471750.0000
v  987139.6250 152389.8906 -1472110.0000
v  968059.4375 150868.2500 -1206622.3750
v  409890.1250 150868.2031 -1525913.3750
v  409603.5625 152389.8906 -1522637.8750
v  987426.1875 150868.2500 -1475385.5000
v  382292.3750 150868.3281 -1257870.2500
v  405488.0625 150868.2500 -1522997.8750
v  967772.8750 6087.7104 -1203346.7500
v  382005.8125 6087.7104 -1254594.7500
v  991541.6875 6087.7104 -1475025.5000
v  405774.6250 6087.7104 -1526273.5000
v  434832.6563 152389.8906 -1463760.6250
v  434564.5313 152389.8906 -1463344.0000
v  431889.7188 152389.8906 -1452591.0000
v  616904.8750 152389.8906 -1422460.0000
v  610654.3750 152389.8906 -1412746.3750
v  661527.3125 152389.8906 -1417958.3750
v  660874.5625 152389.8906 -1429490.8750
v  619847.8125 152389.8906 -1433629.6250
v  663817.5000 152389.8906 -1440660.6250
v  619195.0625 152389.8906 -1445162.1250
v  670068.0000 152389.8906 -1450374.2500
v  679014.3125 152389.8906 -1457680.8750
v  827280.6250 1.0894 -1447828.3750
v  827560.2500 1.0894 -1447870.7500
v  836688.5625 1.0894 -1441774.5000
v  594617.8125 152389.8906 -1335155.6250
v  775994.1250 152389.9063 -1406856.5000
v  584904.1875 152389.8906 -1341406.1250
v  652625.6875 152389.8906 -1277473.0000
v  648441.1875 152389.8906 -1288239.2500
v  603818.8125 152389.8906 -1292741.0000
v  597568.3125 152389.8906 -1283027.3750
v  597568.3125 1.0894 -1283027.3750
v  603818.8125 1.0894 -1292741.0000
v  652625.6875 1.0894 -1277473.0000
v  659932.3750 1.0894 -1268526.6250
v  712060.6875 1.0894 -1271477.1250
v  712268.8125 1.0894 -1271800.6250
v  767118.1250 1.0894 -1265923.0000
v  774424.7500 1.0894 -1256976.7500
v  784138.3750 1.0894 -1250726.2500
v  703114.4375 1.0894 -1264170.5000
v  615010.5625 1.0894 -1455928.3750
v  607703.8750 1.0894 -1464874.7500
v  689780.6250 1.0894 -1461865.3750
v  679014.3125 1.0894 -1457680.8750
v  784633.6875 1.0894 -1438938.1250
v  784629.1875 1.0894 -1438931.1250
v  778309.7500 1.0894 -1429110.5000
v  733687.5000 1.0894 -1433612.0000
v  734340.2500 1.0894 -1422079.6250
v  827560.2500 152389.8906 -1447870.7500
v  815805.2500 152389.8906 -1450968.0000
v  836688.5625 152389.8906 -1441774.5000
v  775366.8125 152389.8906 -1417940.7500
v  731397.3125 152389.8906 -1410910.0000
v  725146.8125 152389.8906 -1401196.3750
v  775861.2500 152389.9063 -1406815.3750
v  705833.5000 152389.8906 -1389727.7500
v  573734.5000 152389.8906 -1344349.1250
v  787510.7500 1.0894 -1386695.7500
v  797224.3125 1.0894 -1380445.2500
v  688226.9375 1.0894 -1332798.8750
v  676694.5000 1.0894 -1332146.1250
v  780204.0625 1.0894 -1395642.0000
v  601924.5000 1.0894 -1326209.3750
v  647788.5000 1.0894 -1299771.7500
v  648441.1875 1.0894 -1288239.2500
v  606761.7500 1.0894 -1303910.6250
v  650731.4375 1.0894 -1310941.5000
v  606109.0000 1.0894 -1315443.0000
v  656981.8750 1.0894 -1320655.0000
v  665928.1875 1.0894 -1327961.6250
v  666133.5625 1.0894 -1328129.3750
v  594617.8125 1.0894 -1335155.6250
v  839639.0625 152389.8906 -1389646.2500
v  892847.2500 152389.8906 -1417731.3750
v  899052.6875 152389.8906 -1427274.0000
v  845889.5000 152389.8906 -1399359.8750
v  848832.4375 152389.8906 -1410529.5000
v  907999.0000 152389.8906 -1434580.6250
v  784586.3750 152389.9063 -1250438.0000
v  795308.1250 152389.8906 -1247783.3750
v  784138.3750 152389.9063 -1250726.2500
v  960516.8750 1.0894 -1388019.3750
v  960382.0000 1.0894 -1387809.7500
v  963324.9375 1.0894 -1398979.5000
v  962672.2500 1.0894 -1410511.8750
v  958487.7500 1.0894 -1421278.1250
v  941467.4375 1.0894 -1436475.0000
v  930207.2500 1.0894 -1439441.7500
v  918765.3125 1.0894 -1438765.1250
v  907999.0000 1.0894 -1434580.6250
v  848832.4375 1.0894 -1410529.5000
v  848179.6875 1.0894 -1422061.8750
v  843995.2500 1.0894 -1432828.2500
v  815805.2500 1.0894 -1450968.0000
v  804272.8125 1.0894 -1450315.2500
v  729503.0000 1.0894 -1444378.3750
v  793554.8125 1.0894 -1446149.5000
v  722196.3125 1.0894 -1453324.6250
v  712482.6875 1.0894 -1459575.1250
v  701313.0000 1.0894 -1462518.1250
v  597990.2500 1.0894 -1471125.2500
v  586820.6250 1.0894 -1474068.1250
v  601708.1250 1.0894 -1405439.7500
v  610654.3750 1.0894 -1412746.3750
v  661527.3125 1.0894 -1417958.3750
v  590941.8750 1.0894 -1401255.2500
v  693901.8125 1.0894 -1389052.3750
v  705434.2500 1.0894 -1389705.1250
v  705833.5000 1.0894 -1389727.7500
v  491616.5625 1.0894 -1326993.0000
v  682732.1250 1.0894 -1391995.3750
v  487432.0625 1.0894 -1337759.2500
v  673018.5000 1.0894 -1398245.8750
v  665711.8125 1.0894 -1407192.1250
v  579409.3750 1.0894 -1400602.5000
v  568239.6875 1.0894 -1403545.3750
v  558526.0625 1.0894 -1409795.8750
v  551219.3750 1.0894 -1418742.1250
v  547034.8750 1.0894 -1429508.5000
v  546382.1250 1.0894 -1441040.8750
v  480125.3750 1.0894 -1346705.5000
v  453747.2500 1.0894 -1415095.3750
v  464916.9688 1.0894 -1412152.5000
v  476449.4063 1.0894 -1412805.2500
v  487215.6875 1.0894 -1416989.7500
v  496161.9375 1.0894 -1424296.3750
v  502412.5000 1.0894 -1434010.0000
v  505355.3750 1.0894 -1445179.7500
v  549325.0625 1.0894 -1452210.6250
v  504702.6563 1.0894 -1456712.1250
v  555575.6250 1.0894 -1461924.2500
v  500518.1250 1.0894 -1467478.5000
v  564521.8750 1.0894 -1469230.8750
v  493211.4688 1.0894 -1476424.7500
v  575288.1250 1.0894 -1473415.3750
v  483497.8750 1.0894 -1482675.2500
v  472328.1875 1.0894 -1485618.1250
v  460795.7500 1.0894 -1484965.3750
v  450029.4375 1.0894 -1480781.0000
v  441083.1875 1.0894 -1473474.2500
v  434832.6563 1.0894 -1463760.6250
v  434564.5313 1.0894 -1463344.0000
v  431889.7188 1.0894 -1452591.0000
v  432542.4375 1.0894 -1441058.5000
v  447709.6250 1.0894 -1355246.2500
v  470411.7500 1.0894 -1352956.0000
v  444033.6250 1.0894 -1421345.8750
v  459242.0625 1.0894 -1355899.0000
v  436726.9688 1.0894 -1430292.2500
v  436943.3125 1.0894 -1351061.7500
v  427997.0625 1.0894 -1343755.1250
v  421746.5625 1.0894 -1334041.5000
v  418803.6250 1.0894 -1322871.7500
v  419456.3438 1.0894 -1311339.2500
v  423640.8438 1.0894 -1300573.0000
v  423962.1563 1.0894 -1300179.6250
v  430947.5625 1.0894 -1291626.7500
v  440661.1563 1.0894 -1285376.2500
v  451830.9063 1.0894 -1282433.2500
v  463363.2813 1.0894 -1283086.0000
v  566323.3125 1.0894 -1270883.3750
v  775861.3125 1.0894 -1406815.3750
v  584904.1875 1.0894 -1341406.1250
v  573734.5000 1.0894 -1344349.1250
v  562202.0625 1.0894 -1343696.3750
v  551641.0625 1.0894 -1339679.5000
v  551435.7500 1.0894 -1339511.8750
v  542489.5000 1.0894 -1332205.1250
v  536239.0000 1.0894 -1322491.5000
v  492269.2500 1.0894 -1315460.5000
v  533296.0625 1.0894 -1311321.8750
v  533296.0625 1.0894 -1311321.7500
v  489326.3750 1.0894 -1304290.8750
v  533948.8125 1.0894 -1299789.3750
v  483075.8750 1.0894 -1294577.2500
v  538133.3125 1.0894 -1289023.1250
v  474129.5625 1.0894 -1287270.6250
v  545440.0000 1.0894 -1280076.8750
v  554813.3750 1.0894 -1274045.2500
v  555153.6250 1.0894 -1273826.3750
v  577855.7500 1.0894 -1271536.1250
v  588622.0625 1.0894 -1275720.6250
v  669646.0000 1.0894 -1262276.1250
v  680815.6875 1.0894 -1259333.2500
v  692348.1250 1.0894 -1259986.0000
v  795308.1250 1.0894 -1247783.3750
v  795498.6250 1.0894 -1247794.1250
v  784586.3125 1.0894 -1250438.0000
v  817606.8125 1.0894 -1252620.6250
v  826553.0625 1.0894 -1259927.2500
v  832803.5625 1.0894 -1269640.8750
v  898630.6875 1.0894 -1239176.1250
v  835093.7500 1.0894 -1292343.0000
v  830909.2500 1.0894 -1303109.2500
v  902003.1875 1.0894 -1375145.6250
v  911507.1250 1.0894 -1369030.1250
v  911499.5625 1.0894 -1368952.3750
v  905679.1875 1.0894 -1309046.1250
v  945185.2500 1.0894 -1370789.5000
v  954131.5000 1.0894 -1378096.2500
v  928381.3125 1.0894 -1306756.0000
v  917211.6250 1.0894 -1309698.8750
v  934433.8125 1.0894 -1366605.8750
v  922886.5000 1.0894 -1365952.2500
v  895118.3125 1.0894 -1305029.3750
v  894912.9375 1.0894 -1304861.6250
v  885966.6250 1.0894 -1297555.0000
v  879716.1250 1.0894 -1287841.3750
v  835746.5000 1.0894 -1280810.5000
v  876773.1875 1.0894 -1276671.7500
v  877425.9375 1.0894 -1265139.1250
v  881598.0000 1.0894 -1254405.0000
v  888917.1250 1.0894 -1245426.6250
v  909800.5000 1.0894 -1236233.1250
v  921332.8750 1.0894 -1236885.8750
v  932099.2500 1.0894 -1241070.3750
v  941045.4375 1.0894 -1248377.1250
v  947295.8750 1.0894 -1258090.7500
v  950238.8750 1.0894 -1269260.3750
v  949586.1250 1.0894 -1280792.8750
v  945401.6250 1.0894 -1291559.1250
v  938094.8750 1.0894 -1300505.3750
v  894696.5000 1.0894 -1384092.0000
v  813889.0000 1.0894 -1318306.0000
v  802719.2500 1.0894 -1321249.0000
v  890512.0000 1.0894 -1394858.2500
v  791186.8750 1.0894 -1320596.2500
v  941241.1250 152389.9063 -1436620.6250
v  941141.7500 152389.9063 -1436560.7500
v  941158.1875 152389.9063 -1436556.5000
v  941467.4375 152389.8906 -1436475.0000
v  762933.5625 1.0894 -1276689.3750
v  718311.1875 1.0894 -1281190.7500
v  762280.8125 1.0894 -1288221.7500
v  721254.1250 1.0894 -1292360.5000
v  765223.6875 1.0894 -1299391.3750
v  720601.3750 1.0894 -1303892.8750
v  771474.2500 1.0894 -1309105.1250
v  780420.5625 1.0894 -1316411.7500
v  780625.8750 1.0894 -1316579.3750
v  889859.3125 1.0894 -1406390.7500
v  716416.8750 1.0894 -1314659.1250
v  892846.8125 1.0894 -1417729.6250
v  892847.2500 1.0894 -1417731.3750
v  830692.8125 1.0894 -1382339.5000
v  699396.6250 1.0894 -1329856.0000
v  709110.1875 1.0894 -1323605.5000
v  808394.0625 1.0894 -1377502.2500
v  819926.5000 1.0894 -1378155.0000
v  839639.0625 1.0894 -1389646.2500
v  823602.5625 1.0894 -1312055.5000
v  894696.5000 152389.8906 -1384092.0000
v  830909.2500 152389.8906 -1303109.2500
v  835093.7500 152389.8906 -1292343.0000
v  902003.1875 152389.8906 -1375145.6250
v  911507.0625 152389.8750 -1369030.1250
v  911499.5000 152389.8750 -1368952.3750
v  669646.0000 152389.8906 -1262276.1250
v  659932.3750 152389.8906 -1268526.6250
v  588622.0625 152389.8906 -1275720.6250
v  680815.6875 152389.8906 -1259333.2500
v  562202.0625 152389.8906 -1343696.3750
v  491616.5625 152389.8906 -1326993.0000
v  705434.2500 152389.9063 -1389705.1250
v  693901.8125 152389.8906 -1389052.3750
v  551435.7500 152389.8906 -1339511.8750
v  542489.5000 152389.8906 -1332205.1250
v  536239.0000 152389.8906 -1322491.5000
v  492269.2500 152389.8906 -1315460.5000
v  533296.0625 152389.9063 -1311321.8750
v  533296.0625 152389.8906 -1311321.7500
v  489326.3750 152389.8906 -1304290.8750
v  533948.8125 152389.8906 -1299789.3750
v  538133.3125 152389.8906 -1289023.1250
v  483075.8750 152389.8906 -1294577.2500
v  545440.0000 152389.8906 -1280076.8750
v  474129.5625 152389.8906 -1287270.6250
v  554813.3750 152389.8906 -1274045.2500
v  463363.2813 152389.8906 -1283086.0000
v  555153.6250 152389.8906 -1273826.3750
v  566323.3125 152389.8906 -1270883.3750
v  470411.7500 152389.8906 -1352956.0000
v  480125.3750 152389.8906 -1346705.5000
v  453747.2500 152389.8906 -1415095.3750
v  444033.6250 152389.8906 -1421345.8750
v  459242.0625 152389.8906 -1355899.0000
v  436726.9688 152389.8906 -1430292.2500
v  447709.6250 152389.8906 -1355246.2500
v  432542.4375 152389.8906 -1441058.5000
v  464916.9688 152389.8906 -1412152.5000
v  487432.0625 152389.8906 -1337759.2500
v  476449.4063 152389.8906 -1412805.2500
v  487215.6875 152389.8906 -1416989.7500
v  496161.9375 152389.8906 -1424296.3750
v  502412.5000 152389.8906 -1434010.0000
v  505355.3750 152389.8906 -1445179.7500
v  546382.1250 152389.8906 -1441040.8750
v  682732.1250 152389.8906 -1391995.3750
v  673018.5000 152389.8906 -1398245.8750
v  665711.8125 152389.8906 -1407192.1250
v  601708.1250 152389.8906 -1405439.7500
v  590941.8750 152389.8906 -1401255.2500
v  579409.3750 152389.8906 -1400602.5000
v  568239.6875 152389.8906 -1403545.3750
v  558526.0625 152389.8906 -1409795.8750
v  551219.3750 152389.8906 -1418742.1250
v  547034.8750 152389.8906 -1429508.5000
v  549325.0625 152389.8906 -1452210.6250
v  504702.6250 152389.8906 -1456712.1250
v  555575.6250 152389.8906 -1461924.2500
v  500518.1250 152389.8906 -1467478.5000
v  564521.8750 152389.8906 -1469230.8750
v  493211.4688 152389.8906 -1476424.7500
v  575288.1250 152389.8906 -1473415.3750
v  586820.6250 152389.8906 -1474068.1250
v  729503.0000 152389.8906 -1444378.3750
v  733687.5000 152389.8906 -1433612.0000
v  793554.8125 152389.8906 -1446149.5000
v  804272.8125 152389.8906 -1450315.2500
v  963324.9375 152389.8906 -1398979.5000
v  960516.8750 152389.8906 -1388019.3750
v  938094.8750 152389.8906 -1300505.3750
v  962672.2500 152389.8906 -1410511.8750
v  958487.7500 152389.8906 -1421278.1250
v  930207.2500 152389.8906 -1439441.7500
v  918765.3125 152389.8906 -1438765.1250
v  848179.6875 152389.8906 -1422061.8750
v  843995.2500 152389.8906 -1432828.2500
v  722196.3125 152389.8906 -1453324.6250
v  712482.6875 152389.8906 -1459575.1250
v  701313.0000 152389.8906 -1462518.1250
v  607703.8750 152389.8906 -1464874.7500
v  597990.2500 152389.8906 -1471125.2500
v  483497.8750 152389.8906 -1482675.2500
v  472328.1875 152389.8906 -1485618.1250
v  460795.7500 152389.8906 -1484965.3750
v  450029.4375 152389.8906 -1480781.0000
v  441083.1875 152389.8906 -1473474.2500
v  436943.3125 152389.8906 -1351061.7500
v  427997.0625 152389.8906 -1343755.1250
v  421746.5625 152389.8906 -1334041.5000
v  418803.6250 152389.8906 -1322871.7500
v  419456.3438 152389.8906 -1311339.2500
v  423640.8438 152389.8906 -1300573.0000
v  430947.5625 152389.8906 -1291626.7500
v  440661.1563 152389.8906 -1285376.2500
v  451830.9063 152389.8906 -1282433.2500
v  577855.7500 152389.8906 -1271536.1250
v  692348.1250 152389.8906 -1259986.0000
v  703114.4375 152389.8906 -1264170.5000
v  806807.8750 152389.8906 -1248434.2500
v  817606.8125 152389.8906 -1252620.6250
v  826553.0625 152389.8906 -1259927.2500
v  832803.5625 152389.8906 -1269640.8750
v  945185.2500 152389.8906 -1370789.5000
v  928381.3125 152389.8906 -1306755.8750
v  954131.5000 152389.8906 -1378096.2500
v  960382.0000 152389.8906 -1387809.7500
v  945401.6250 152389.8906 -1291559.1250
v  949586.1250 152389.8906 -1280792.8750
v  950238.8125 152389.8906 -1269260.3750
v  947295.9375 152389.8906 -1258090.7500
v  941045.4375 152389.8906 -1248377.1250
v  932099.1875 152389.8906 -1241070.5000
v  921332.8750 152389.8906 -1236885.8750
v  909800.5000 152389.8906 -1236233.1250
v  898630.6875 152389.8906 -1239176.1250
v  888917.1250 152389.8906 -1245426.6250
v  881598.0000 152389.8906 -1254405.0000
v  835746.5000 152389.8906 -1280810.5000
v  877425.8750 152389.8906 -1265139.1250
v  876773.1875 152389.8906 -1276671.6250
v  876773.1875 152389.8906 -1276671.7500
v  879716.1250 152389.8906 -1287841.3750
v  885966.6250 152389.8906 -1297555.0000
v  894912.9375 152389.8906 -1304861.6250
v  905679.1875 152389.8906 -1309046.1250
v  922886.5000 152389.8906 -1365952.2500
v  934433.7500 152389.8750 -1366605.8750
v  917211.6250 152389.8906 -1309698.8750
v  944669.3750 152389.8906 -1370589.0000
v  619847.8125 1.0894 -1433629.6250
v  619195.0625 1.0894 -1445162.1250
v  616904.8750 1.0894 -1422460.0000
v  615010.5625 152389.8906 -1455928.3750
v  606761.7500 152389.8906 -1303910.6250
v  606109.0000 152389.8906 -1315443.0000
v  601924.5000 152389.8906 -1326209.3750
v  721254.1250 152389.8906 -1292360.5000
v  720601.3750 152389.8906 -1303892.8750
v  718311.1875 152389.8906 -1281190.7500
v  716416.8750 152389.8906 -1314659.1250
v  709110.1875 152389.8906 -1323605.5000
v  699396.5625 1.0894 -1329856.0000
v  699396.5625 152389.8906 -1329856.0000
v  688226.9375 152389.8906 -1332798.8750
v  676694.5000 152389.8906 -1332146.1250
v  665928.1875 152389.8906 -1327961.6250
v  650731.3750 152389.8906 -1310941.3750
v  650731.3750 1.0894 -1310941.3750
v  650731.4375 152389.8906 -1310941.5000
v  656981.8750 152389.8906 -1320655.0000
v  647788.5000 152389.8906 -1299771.7500
v  652625.7500 1.0894 -1277473.0000
v  659932.3750 1.0894 -1268526.7500
v  712060.6875 152389.8906 -1271477.1250
v  734340.2500 152389.8906 -1422079.6250
v  731397.3125 1.0894 -1410910.0000
v  689780.6250 152389.8906 -1461865.3750
v  670068.0000 1.0894 -1450374.2500
v  663817.5000 1.0894 -1440660.6250
v  660874.5625 1.0894 -1429490.8750
v  716200.5625 152389.8906 -1393889.6250
v  716200.5625 1.0894 -1393889.6250
v  725146.8125 1.0894 -1401196.3750
v  845889.5000 1.0894 -1399359.8750
v  836688.5000 152389.8906 -1441774.5000
v  836688.5000 1.0894 -1441774.5000
v  826975.0000 1.0894 -1448025.0000
v  826975.0000 152389.8906 -1448025.0000
v  793506.5625 152389.8906 -1446130.7500
v  793506.5625 1.0894 -1446130.7500
v  784560.2500 1.0894 -1438824.0000
v  784560.2500 152389.8906 -1438824.0000
v  778309.6875 152389.8906 -1429110.5000
v  778309.6875 1.0894 -1429110.5000
v  775366.7500 1.0894 -1417940.7500
v  775366.7500 152389.8906 -1417940.7500
v  776019.5000 152389.8906 -1406408.2500
v  776019.5000 1.0894 -1406408.2500
v  780204.0625 152389.8906 -1395642.0000
v  787510.6875 152389.8906 -1386695.7500
v  787510.6875 1.0894 -1386695.7500
v  797224.3125 152389.8906 -1380445.2500
v  808394.0625 152389.8906 -1377502.2500
v  819926.5000 152389.8906 -1378155.0000
v  830692.8125 152389.8906 -1382339.5000
v  823602.5625 152389.8906 -1312055.5000
v  813889.0000 1.0894 -1318306.1250
v  813889.0000 152389.8906 -1318306.1250
v  802719.2500 152389.8906 -1321249.0000
v  791186.8750 152389.8906 -1320596.2500
v  780420.5625 152389.8906 -1316411.7500
v  771474.2500 152389.8906 -1309105.1250
v  765223.7500 152389.8906 -1299391.5000
v  765223.7500 1.0894 -1299391.5000
v  762280.8125 152389.8906 -1288221.7500
v  762933.5625 152389.8906 -1276689.3750
v  767118.1250 152389.8906 -1265923.0000
v  774424.7500 152389.8906 -1256976.7500
v  784138.3750 152389.8906 -1250726.2500
v  795308.0625 152389.8906 -1247783.3750
v  795308.0625 1.0894 -1247783.3750
v  806840.5000 1.0894 -1248436.1250
v  806840.5000 152389.8906 -1248436.1250
v  950238.8125 1.0894 -1269260.3750
v  947295.9375 1.0894 -1258090.7500
v  928381.3125 1.0894 -1306755.8750
v  876773.1875 1.0894 -1276671.6250
v  877425.8750 1.0894 -1265139.2500
v  881610.4375 1.0894 -1254372.8750
v  881610.4375 152389.8906 -1254372.8750
v  909800.4375 1.0894 -1236233.1250
v  932099.1875 1.0894 -1241070.5000
v  958487.7500 1.0894 -1421278.2500
v  958487.7500 152389.8906 -1421278.2500
v  951181.0000 152389.8906 -1430224.5000
v  951181.0000 1.0894 -1430224.5000
v  930297.7500 152389.8906 -1439417.8750
v  930297.7500 1.0894 -1439417.8750
v  899052.6875 1.0894 -1427274.0000
v  892802.2500 152389.8906 -1417560.3750
v  892802.2500 1.0894 -1417560.3750
v  889859.3125 1.0894 -1406390.6250
v  889859.3125 152389.8906 -1406390.6250
v  890512.0000 152389.8906 -1394858.2500
v  911716.7500 1.0894 -1368895.1250
v  911716.7500 152389.8906 -1368895.1250
v  934418.9375 1.0894 -1366605.0000
v  934418.9375 152389.8906 -1366605.0000
v  712411.6875 152389.8906 -1271763.8750
v  778309.7500 152389.8906 -1429110.5000
v  784629.1875 152389.8750 -1438931.1250
v  784712.9375 152389.8750 -1438948.7500
v  775366.8125 1.0894 -1417940.7500
v  787510.7500 152389.8906 -1386695.7500
v  892846.8125 152389.8906 -1417729.6250
v  765223.6875 152389.8906 -1299391.3750
v  780625.8750 152389.8750 -1316579.3750
v  889859.3125 152389.8906 -1406390.7500
v  892949.8750 152389.8906 -1417789.8750
# 540 vertices

vn -0.0872 0.0000 0.9962
vn 0.9962 0.0000 0.0872
vn 0.0872 0.0000 -0.9962
vn -0.9962 0.0000 -0.0872
vn -0.1867 -0.3145 0.9307
vn 0.0770 -0.9435 0.3224
vn -0.9307 -0.3145 -0.1867
vn 0.3224 -0.9435 -0.0770
vn -0.3955 0.1048 0.9125
vn 0.9125 0.1048 0.3955
vn -0.9125 0.1048 -0.3955
vn 0.3955 0.1048 -0.9125
vn -0.3150 -0.9487 -0.0276
vn 0.0276 -0.9487 -0.3150
vn 0.3150 -0.9487 0.0276
vn -0.0276 -0.9487 0.3150
vn -0.0276 0.9487 0.3150
vn 0.3150 0.9487 0.0276
vn 0.0276 0.9487 -0.3150
vn -0.3150 0.9487 -0.0276
vn 0.2323 -0.0000 0.9726
vn -0.3977 0.0000 0.9175
vn 0.9726 0.0000 -0.2323
vn -0.2323 -0.0000 -0.9726
vn -0.3955 -0.1048 0.9125
vn -0.9274 -0.3015 0.2215
vn -0.3266 -0.9045 0.2741
vn 0.3042 -0.9435 0.1318
vn 0.8748 -0.3015 0.3792
vn 0.2215 -0.3015 0.9274
vn -0.9125 -0.1048 -0.3955
vn -0.2215 -0.3015 -0.9274
vn -0.2741 -0.9045 -0.3266
vn 0.1318 -0.9435 -0.3042
vn 0.3792 -0.3015 -0.8748
vn 0.9274 -0.3015 -0.2215
vn -0.1867 0.3145 0.9307
vn -0.3266 0.9045 0.2741
vn -0.9274 0.3015 0.2215
vn 0.9307 0.3145 0.1867
vn 0.2741 0.9045 0.3266
vn 0.2215 0.3015 0.9274
vn -0.9307 0.3145 -0.1867
vn -0.2741 0.9045 -0.3266
vn -0.2215 0.3015 -0.9274
vn 0.1867 0.3145 -0.9307
vn 0.3266 0.9045 -0.2741
vn 0.9274 0.3015 -0.2215
vn -0.9451 -0.3162 -0.0827
vn 0.0827 -0.3162 -0.9451
vn 0.9451 -0.3162 0.0827
vn -0.0827 -0.3162 0.9451
vn -0.0827 0.3162 0.9451
vn 0.9451 0.3162 0.0827
vn 0.0827 0.3162 -0.9451
vn -0.9451 0.3162 -0.0827
vn 0.9175 -0.0000 0.3977
vn -0.9726 0.0000 0.2323
vn 0.3977 0.0000 -0.9175
vn -0.9175 -0.0000 -0.3977
vn 0.0000 1.0000 -0.0000
vn 0.0000 -1.0000 -0.0000
vn -0.0000 1.0000 0.0000
vn -0.0000 1.0000 -0.0000
vn 0.0000 1.0000 0.0000
vn -0.9996 0.0000 0.0275
vn -0.9752 0.0000 -0.2215
vn -0.8408 0.0000 0.5414
vn -0.9592 0.0000 0.2827
vn -0.2956 0.0000 0.9553
vn -0.6222 0.0000 0.7828
vn 0.4504 0.0000 0.8928
vn 0.0926 0.0000 0.9957
vn 0.8851 0.0000 0.4653
vn 0.7162 0.0000 0.6979
vn 0.9996 0.0000 -0.0275
vn 0.9752 0.0000 0.2215
vn 0.8408 0.0000 -0.5414
vn 0.9592 0.0000 -0.2827
vn 0.2956 0.0000 -0.9553
vn 0.6222 0.0000 -0.7828
vn -0.4504 0.0000 -0.8928
vn -0.0926 0.0000 -0.9957
vn -0.8851 0.0000 -0.4653
vn -0.7162 0.0000 -0.6979
vn -0.9996 -0.0000 0.0275
vn -0.9752 -0.0000 -0.2215
vn -0.9592 -0.0000 0.2827
vn 0.9996 -0.0000 -0.0275
vn 0.6222 -0.0000 -0.7828
vn 0.8851 -0.0000 0.4653
vn 0.7162 -0.0000 0.6979
vn 0.9752 -0.0000 0.2215
vn 0.2956 -0.0000 -0.9553
vn -0.8851 -0.0000 -0.4653
vn -0.2956 -0.0000 0.9553
vn -0.6222 -0.0000 0.7828
vn 0.4504 -0.0000 0.8928
vn -0.7162 -0.0000 -0.6979
vn -0.8408 -0.0000 0.5414
vn 0.0926 -0.0000 0.9957
vn 0.9592 -0.0000 -0.2827
# 102 vertex normals

vt 0.0093 0.0399 0.0000
vt 0.9906 0.0399 0.0000
vt 0.9908 0.9601 0.0000
vt 0.0093 0.9601 0.0000
vt 0.0159 0.0399 0.0000
vt 0.9841 0.0399 0.0000
vt 0.9841 0.9601 0.0000
vt 0.0159 0.9601 0.0000
vt 0.0000 0.0000 0.0000
vt 0.0093 0.0159 0.0000
vt 0.0093 0.9843 0.0000
vt 0.0000 1.0000 0.0000
vt 0.0160 0.0193 0.0000
vt 0.0160 -0.0012 0.0000
vt 0.9841 -0.0012 0.0000
vt 0.9841 0.0193 0.0000
vt 0.0093 0.0229 0.0000
vt 0.0093 0.0059 0.0000
vt 0.9907 0.0059 0.0000
vt 0.9906 0.0229 0.0000
vt 0.9908 0.9771 0.0000
vt 0.9907 0.9941 0.0000
vt 0.0093 0.9941 0.0000
vt 0.0093 0.9771 0.0000
vt 0.9841 0.9807 0.0000
vt 0.9841 1.0013 0.0000
vt 0.0160 1.0013 0.0000
vt 0.0160 0.9807 0.0000
vt 0.0441 0.9601 0.0000
vt 0.0724 0.9601 0.0000
vt 0.0724 0.0399 0.0000
vt 0.0441 0.0399 0.0000
vt 0.9559 0.0399 0.0000
vt 0.9277 0.0399 0.0000
vt 0.9277 0.9601 0.0000
vt 0.9559 0.9601 0.0000
vt 0.0375 0.9601 0.0000
vt 0.0657 0.9601 0.0000
vt 0.0657 0.0399 0.0000
vt 0.0375 0.0399 0.0000
vt 0.0002 0.0263 0.0000
vt -0.0074 0.0177 0.0000
vt -0.0084 0.0651 0.0000
vt -0.0211 0.0059 0.0000
vt -0.0082 0.0178 0.0000
vt -0.0210 0.0200 0.0000
vt -0.0420 0.0553 0.0000
vt -0.0420 0.0246 0.0000
vt 0.0035 0.0263 0.0000
vt -0.0051 0.0177 0.0000
vt -0.0018 0.0651 0.0000
vt -0.0185 0.0059 0.0000
vt -0.0082 0.9901 0.0000
vt -0.0210 0.9803 0.0000
vt -0.0420 0.9761 0.0000
vt -0.0420 0.9453 0.0000
vt -0.0030 0.9885 0.0000
vt -0.0074 0.9823 0.0000
vt -0.0211 0.9941 0.0000
vt -0.0084 0.9350 0.0000
vt -0.0006 0.9885 0.0000
vt -0.0051 0.9823 0.0000
vt -0.0185 0.9941 0.0000
vt -0.0018 0.9350 0.0000
vt 0.0606 0.7787 0.0000
vt 0.0602 0.7771 0.0000
vt 0.0572 0.7373 0.0000
vt 0.3737 0.6868 0.0000
vt 0.3646 0.6496 0.0000
vt 0.4496 0.6846 0.0000
vt 0.4468 0.7262 0.0000
vt 0.3770 0.7282 0.0000
vt 0.4502 0.7676 0.0000
vt 0.3742 0.7698 0.0000
vt 0.4593 0.8048 0.0000
vt 0.4733 0.8341 0.0000
vt 0.2753 0.8455 0.0000
vt 0.2749 0.8458 0.0000
vt 0.2586 0.8266 0.0000
vt 0.3490 0.3633 0.0000
vt 0.6443 0.6807 0.0000
vt 0.3317 0.3829 0.0000
vt 0.4553 0.1727 0.0000
vt 0.4466 0.2104 0.0000
vt 0.3707 0.2125 0.0000
vt 0.3616 0.1754 0.0000
vt 0.6384 0.1753 0.0000
vt 0.6293 0.2125 0.0000
vt 0.5448 0.1726 0.0000
vt 0.5311 0.1425 0.0000
vt 0.4436 0.1698 0.0000
vt 0.4433 0.1710 0.0000
vt 0.3500 0.1671 0.0000
vt 0.3363 0.1370 0.0000
vt 0.3190 0.1174 0.0000
vt 0.4576 0.1405 0.0000
vt 0.6344 0.8075 0.0000
vt 0.6481 0.8376 0.0000
vt 0.5092 0.8528 0.0000
vt 0.5268 0.8342 0.0000
vt 0.3459 0.7998 0.0000
vt 0.3551 0.7622 0.0000
vt 0.4311 0.7643 0.0000
vt 0.4283 0.7227 0.0000
vt 0.7253 0.8456 0.0000
vt 0.7050 0.8531 0.0000
vt 0.7415 0.8265 0.0000
vt 0.6416 0.7206 0.0000
vt 0.5685 0.6812 0.0000
vt 0.5594 0.6440 0.0000
vt 0.6441 0.6805 0.0000
vt 0.5285 0.5964 0.0000
vt 0.3124 0.3900 0.0000
vt 0.3334 0.6113 0.0000
vt 0.3161 0.5918 0.0000
vt 0.4929 0.3845 0.0000
vt 0.5122 0.3785 0.0000
vt 0.3470 0.6415 0.0000
vt 0.6374 0.3332 0.0000
vt 0.5562 0.2519 0.0000
vt 0.5534 0.2103 0.0000
vt 0.6260 0.2539 0.0000
vt 0.5529 0.2934 0.0000
vt 0.6288 0.2955 0.0000
vt 0.5438 0.3305 0.0000
vt 0.5298 0.3599 0.0000
vt 0.5294 0.3605 0.0000
vt 0.6511 0.3633 0.0000
vt 0.7542 0.6385 0.0000
vt 0.8398 0.7571 0.0000
vt 0.8488 0.7937 0.0000
vt 0.7633 0.6757 0.0000
vt 0.7666 0.7171 0.0000
vt 0.8629 0.8230 0.0000
vt 0.6818 0.1166 0.0000
vt 0.7002 0.1103 0.0000
vt 0.6810 0.1175 0.0000
vt 0.0418 0.6711 0.0000
vt 0.0420 0.6703 0.0000
vt 0.0387 0.7117 0.0000
vt 0.0415 0.7533 0.0000
vt 0.0501 0.7910 0.0000
vt 0.0811 0.8406 0.0000
vt 0.1005 0.8478 0.0000
vt 0.1197 0.8417 0.0000
vt 0.1373 0.8232 0.0000
vt 0.2335 0.7172 0.0000
vt 0.2363 0.7588 0.0000
vt 0.2449 0.7965 0.0000
vt 0.2951 0.8533 0.0000
vt 0.3145 0.8473 0.0000
vt 0.4397 0.8020 0.0000
vt 0.3319 0.8288 0.0000
vt 0.4533 0.8321 0.0000
vt 0.4706 0.8517 0.0000
vt 0.4899 0.8588 0.0000
vt 0.6654 0.8572 0.0000
vt 0.6846 0.8643 0.0000
vt 0.6495 0.6203 0.0000
vt 0.6354 0.6496 0.0000
vt 0.5504 0.6847 0.0000
vt 0.6670 0.6017 0.0000
vt 0.4916 0.5902 0.0000
vt 0.4723 0.5962 0.0000
vt 0.4716 0.5964 0.0000
vt 0.8236 0.3010 0.0000
vt 0.5109 0.5973 0.0000
vt 0.8322 0.3387 0.0000
vt 0.5282 0.6169 0.0000
vt 0.5418 0.6470 0.0000
vt 0.6864 0.5957 0.0000
vt 0.7056 0.6028 0.0000
vt 0.7229 0.6224 0.0000
vt 0.7365 0.6525 0.0000
vt 0.7452 0.6902 0.0000
vt 0.7480 0.7318 0.0000
vt 0.8459 0.3688 0.0000
vt 0.9004 0.6083 0.0000
vt 0.8811 0.6012 0.0000
vt 0.8618 0.6072 0.0000
vt 0.8442 0.6258 0.0000
vt 0.8302 0.6551 0.0000
vt 0.8211 0.6923 0.0000
vt 0.8178 0.7337 0.0000
vt 0.7447 0.7732 0.0000
vt 0.8206 0.7753 0.0000
vt 0.7355 0.8104 0.0000
vt 0.8292 0.8130 0.0000
vt 0.7215 0.8397 0.0000
vt 0.8428 0.8431 0.0000
vt 0.7040 0.8583 0.0000
vt 0.8601 0.8627 0.0000
vt 0.9906 0.9841 0.0000
vt 0.8794 0.8698 0.0000
vt 0.8987 0.8638 0.0000
vt 0.9163 0.8452 0.0000
vt 0.9303 0.8159 0.0000
vt 0.9394 0.7787 0.0000
vt 0.9398 0.7771 0.0000
vt 0.9427 0.7373 0.0000
vt 0.9399 0.6957 0.0000
vt 0.9018 0.3895 0.0000
vt 0.8632 0.3884 0.0000
vt 0.9177 0.6279 0.0000
vt 0.8824 0.3955 0.0000
vt 0.9313 0.6580 0.0000
vt 0.9193 0.3709 0.0000
vt 0.9333 0.3416 0.0000
vt 0.9424 0.3044 0.0000
vt 0.9908 0.0158 0.0000
vt 0.9458 0.2630 0.0000
vt 0.9430 0.2214 0.0000
vt 0.9343 0.1837 0.0000
vt 0.9337 0.1824 0.0000
vt 0.9207 0.1536 0.0000
vt 0.9034 0.1340 0.0000
vt 0.8841 0.1269 0.0000
vt 0.8648 0.1329 0.0000
vt 0.6893 0.1214 0.0000
vt 0.3560 0.6806 0.0000
vt 0.6684 0.3829 0.0000
vt 0.6877 0.3900 0.0000
vt 0.7070 0.3840 0.0000
vt 0.7242 0.3661 0.0000
vt 0.7246 0.3654 0.0000
vt 0.7386 0.3361 0.0000
vt 0.7477 0.2989 0.0000
vt 0.8208 0.2594 0.0000
vt 0.7510 0.2575 0.0000
vt 0.8241 0.2180 0.0000
vt 0.7482 0.2159 0.0000
vt 0.8332 0.1808 0.0000
vt 0.7396 0.1782 0.0000
vt 0.8472 0.1515 0.0000
vt 0.7259 0.1481 0.0000
vt 0.7092 0.1292 0.0000
vt 0.7086 0.1285 0.0000
vt 0.6700 0.1274 0.0000
vt 0.6524 0.1460 0.0000
vt 0.5138 0.1230 0.0000
vt 0.4945 0.1158 0.0000
vt 0.4752 0.1219 0.0000
vt 0.2997 0.1103 0.0000
vt 0.2994 0.1104 0.0000
vt 0.3182 0.1165 0.0000
vt 0.2628 0.1349 0.0000
vt 0.2488 0.1642 0.0000
vt 0.2397 0.2014 0.0000
vt 0.1242 0.1119 0.0000
vt 0.2392 0.2845 0.0000
vt 0.2479 0.3222 0.0000
vt 0.1386 0.6058 0.0000
vt 0.1217 0.5867 0.0000
vt 0.1217 0.5864 0.0000
vt 0.1226 0.3674 0.0000
vt 0.0651 0.6037 0.0000
vt 0.0511 0.6331 0.0000
vt 0.0840 0.3663 0.0000
vt 0.1033 0.3734 0.0000
vt 0.0826 0.5852 0.0000
vt 0.1020 0.5791 0.0000
vt 0.1399 0.3495 0.0000
vt 0.1402 0.3488 0.0000
vt 0.1542 0.3195 0.0000
vt 0.1633 0.2823 0.0000
vt 0.2364 0.2429 0.0000
vt 0.1666 0.2409 0.0000
vt 0.1638 0.1993 0.0000
vt 0.1552 0.1617 0.0000
vt 0.1415 0.1315 0.0000
vt 0.1050 0.1048 0.0000
vt 0.0856 0.1108 0.0000
vt 0.0681 0.1294 0.0000
vt 0.0540 0.1587 0.0000
vt 0.0449 0.1959 0.0000
vt 0.0416 0.2373 0.0000
vt 0.0444 0.2789 0.0000
vt 0.0531 0.3166 0.0000
vt 0.0667 0.3467 0.0000
vt 0.1522 0.6359 0.0000
vt 0.2788 0.3718 0.0000
vt 0.2981 0.3790 0.0000
vt 0.1609 0.6736 0.0000
vt 0.3174 0.3729 0.0000
vt 0.9186 0.8409 0.0000
vt 0.9185 0.8407 0.0000
vt 0.9190 0.8405 0.0000
vt 0.3586 0.2048 0.0000
vt 0.4345 0.2070 0.0000
vt 0.3614 0.2464 0.0000
vt 0.4312 0.2484 0.0000
vt 0.3581 0.2878 0.0000
vt 0.4340 0.2900 0.0000
vt 0.3490 0.3250 0.0000
vt 0.3350 0.3543 0.0000
vt 0.3347 0.3550 0.0000
vt 0.1637 0.7152 0.0000
vt 0.4427 0.3277 0.0000
vt 0.1603 0.7573 0.0000
vt 0.2599 0.6093 0.0000
vt 0.4736 0.3774 0.0000
vt 0.4563 0.3578 0.0000
vt 0.2968 0.5847 0.0000
vt 0.2775 0.5907 0.0000
vt 0.2459 0.6386 0.0000
vt 0.2615 0.3523 0.0000
vt 0.8478 0.6358 0.0000
vt 0.7522 0.3221 0.0000
vt 0.7608 0.2844 0.0000
vt 0.8615 0.6057 0.0000
vt 0.8784 0.5866 0.0000
vt 0.8784 0.5863 0.0000
vt 0.4862 0.1230 0.0000
vt 0.4689 0.1426 0.0000
vt 0.3476 0.1460 0.0000
vt 0.5055 0.1159 0.0000
vt 0.2931 0.3840 0.0000
vt 0.1765 0.3011 0.0000
vt 0.5279 0.5961 0.0000
vt 0.5085 0.5901 0.0000
vt 0.2755 0.3654 0.0000
vt 0.2615 0.3361 0.0000
vt 0.2524 0.2989 0.0000
vt 0.1793 0.2595 0.0000
vt 0.2491 0.2575 0.0000
vt 0.1760 0.2181 0.0000
vt 0.2519 0.2159 0.0000
vt 0.2605 0.1782 0.0000
vt 0.1669 0.1809 0.0000
vt 0.2742 0.1481 0.0000
vt 0.1529 0.1516 0.0000
vt 0.2909 0.1293 0.0000
vt 0.1353 0.1330 0.0000
vt 0.2915 0.1286 0.0000
vt 0.3107 0.1215 0.0000
vt 0.1369 0.3885 0.0000
vt 0.1542 0.3689 0.0000
vt 0.0996 0.6084 0.0000
vt 0.0823 0.6279 0.0000
vt 0.1176 0.3956 0.0000
vt 0.0687 0.6580 0.0000
vt 0.0983 0.3896 0.0000
vt 0.0600 0.6957 0.0000
vt 0.1189 0.6012 0.0000
vt 0.1679 0.3388 0.0000
vt 0.1383 0.6073 0.0000
vt 0.1558 0.6258 0.0000
vt 0.1698 0.6552 0.0000
vt 0.1789 0.6923 0.0000
vt 0.1822 0.7337 0.0000
vt 0.2520 0.7318 0.0000
vt 0.4892 0.5972 0.0000
vt 0.4719 0.6168 0.0000
vt 0.4583 0.6469 0.0000
vt 0.3506 0.6203 0.0000
vt 0.3331 0.6017 0.0000
vt 0.3137 0.5957 0.0000
vt 0.2944 0.6028 0.0000
vt 0.2771 0.6224 0.0000
vt 0.2635 0.6525 0.0000
vt 0.2548 0.6902 0.0000
vt 0.2554 0.7732 0.0000
vt 0.1794 0.7753 0.0000
vt 0.2645 0.8103 0.0000
vt 0.1708 0.8130 0.0000
vt 0.2785 0.8397 0.0000
vt 0.1571 0.8431 0.0000
vt 0.2960 0.8582 0.0000
vt 0.3154 0.8643 0.0000
vt 0.5604 0.8019 0.0000
vt 0.5690 0.7642 0.0000
vt 0.6682 0.8286 0.0000
vt 0.6856 0.8471 0.0000
vt 0.9614 0.7115 0.0000
vt 0.9582 0.6709 0.0000
vt 0.9333 0.3467 0.0000
vt 0.9908 0.9841 0.0000
vt 0.9586 0.7531 0.0000
vt 0.9499 0.7908 0.0000
vt 0.8996 0.8476 0.0000
vt 0.8804 0.8416 0.0000
vt 0.7638 0.7587 0.0000
vt 0.7552 0.7963 0.0000
vt 0.5467 0.8320 0.0000
vt 0.5294 0.8516 0.0000
vt 0.5102 0.8587 0.0000
vt 0.3519 0.8376 0.0000
vt 0.3346 0.8571 0.0000
vt 0.1398 0.8627 0.0000
vt 0.0093 0.9841 0.0000
vt 0.1206 0.8698 0.0000
vt 0.1012 0.8638 0.0000
vt 0.0837 0.8452 0.0000
vt 0.0697 0.8159 0.0000
vt 0.0807 0.3710 0.0000
vt 0.0667 0.3417 0.0000
vt 0.0576 0.3045 0.0000
vt 0.0543 0.2631 0.0000
vt 0.0571 0.2215 0.0000
vt 0.0658 0.1838 0.0000
vt 0.0794 0.1537 0.0000
vt 0.0967 0.1341 0.0000
vt 0.1160 0.1270 0.0000
vt 0.9906 0.0159 0.0000
vt 0.3301 0.1275 0.0000
vt 0.5248 0.1219 0.0000
vt 0.5424 0.1405 0.0000
vt 0.7195 0.1163 0.0000
vt 0.7371 0.1349 0.0000
vt 0.7511 0.1643 0.0000
vt 0.7603 0.2014 0.0000
vt 0.9349 0.6036 0.0000
vt 0.9160 0.3662 0.0000
vt 0.9489 0.6329 0.0000
vt 0.9581 0.6701 0.0000
vt 0.9469 0.3166 0.0000
vt 0.9555 0.2789 0.0000
vt 0.9583 0.2373 0.0000
vt 0.9550 0.1959 0.0000
vt 0.9459 0.1587 0.0000
vt 0.9319 0.1294 0.0000
vt 0.9143 0.1108 0.0000
vt 0.8950 0.1048 0.0000
vt 0.8757 0.1119 0.0000
vt 0.8584 0.1315 0.0000
vt 0.8448 0.1617 0.0000
vt 0.7636 0.2428 0.0000
vt 0.8362 0.1993 0.0000
vt 0.8334 0.2409 0.0000
vt 0.8367 0.2823 0.0000
vt 0.8458 0.3194 0.0000
vt 0.8598 0.3488 0.0000
vt 0.8774 0.3673 0.0000
vt 0.8980 0.5790 0.0000
vt 0.9174 0.5850 0.0000
vt 0.8967 0.3734 0.0000
vt 0.9341 0.6027 0.0000
vt 0.7500 0.2556 1.0000
vt 0.7500 0.6372 1.0000
vt 0.8000 0.6372 1.0000
vt 0.8000 0.2556 1.0000
vt 0.7000 0.2556 1.0000
vt 0.7000 0.6372 1.0000
vt 0.8500 0.2556 1.0000
vt 0.8500 0.6372 1.0000
vt 0.9000 0.6372 1.0000
vt 0.9000 0.2556 1.0000
vt 0.9500 0.2556 1.0000
vt 0.9500 0.6372 1.0000
vt 1.0000 0.6372 1.0000
vt 1.0000 0.2556 1.0000
vt 0.0500 0.2556 1.0000
vt 0.0500 0.6372 1.0000
vt 0.1000 0.6372 1.0000
vt 0.1000 0.2556 1.0000
vt 0.0000 0.2556 1.0000
vt 0.0000 0.6372 1.0000
vt 0.1500 0.2556 1.0000
vt 0.1500 0.6372 1.0000
vt 0.2000 0.6372 1.0000
vt 0.2000 0.2556 1.0000
vt 0.2500 0.2556 1.0000
vt 0.2500 0.6372 1.0000
vt 0.3000 0.6372 1.0000
vt 0.3000 0.2556 1.0000
vt 0.4000 0.6372 1.0000
vt 0.4000 0.2556 1.0000
vt 0.3522 0.2556 1.0000
vt 0.3500 0.2556 1.0000
vt 0.3500 0.6372 1.0000
vt 0.4500 0.2556 1.0000
vt 0.4500 0.6372 1.0000
vt 0.5000 0.6372 1.0000
vt 0.5000 0.2556 1.0000
vt 0.5500 0.2556 1.0000
vt 0.5500 0.6372 1.0000
vt 0.6000 0.6372 1.0000
vt 0.6000 0.2556 1.0000
vt 0.6500 0.2556 1.0000
vt 0.6500 0.6372 1.0000
vt 0.4482 0.2556 1.0000
vt 0.4482 0.6372 1.0000
vt 0.3499 0.6372 1.0000
vt 0.6263 0.6868 0.0000
vt 0.5532 0.7263 0.0000
vt 0.6230 0.7282 0.0000
vt 0.5499 0.7677 0.0000
vt 0.6258 0.7698 0.0000
vt 0.5408 0.8049 0.0000
vt 0.4908 0.8527 0.0000
vt 0.3656 0.8075 0.0000
vt 0.6637 0.1370 0.0000
vt 0.6500 0.1671 0.0000
vt 0.5569 0.1710 0.0000
vt 0.5564 0.1698 0.0000
vt 0.5718 0.7226 0.0000
vt 0.6450 0.7620 0.0000
vt 0.6542 0.7996 0.0000
vt 0.6543 0.7997 0.0000
vt 0.3585 0.7207 0.0000
vt 0.4316 0.6813 0.0000
vt 0.5454 0.6147 0.0000
vt 0.4407 0.6441 0.0000
vt 0.4547 0.6148 0.0000
vt 0.4439 0.2520 0.0000
vt 0.3741 0.2540 0.0000
vt 0.4472 0.2934 0.0000
vt 0.3713 0.2955 0.0000
vt 0.4563 0.3306 0.0000
vt 0.4703 0.3599 0.0000
vt 0.4878 0.3785 0.0000
vt 0.3626 0.3332 0.0000
vt 0.6667 0.6113 0.0000
vt 0.5072 0.3845 0.0000
vt 0.6531 0.6414 0.0000
vt 0.2368 0.6758 0.0000
vt 0.1513 0.7938 0.0000
vt 0.7402 0.6092 0.0000
vt 0.5265 0.3773 0.0000
vt 0.6840 0.5917 0.0000
vt 0.5438 0.3578 0.0000
vt 0.7033 0.5846 0.0000
vt 0.5574 0.3277 0.0000
vt 0.7226 0.5906 0.0000
vt 0.6414 0.2048 0.0000
vt 0.5655 0.2070 0.0000
vt 0.6386 0.2464 0.0000
vt 0.5688 0.2484 0.0000
vt 0.6419 0.2878 0.0000
vt 0.5660 0.2900 0.0000
vt 0.6510 0.3250 0.0000
vt 0.6651 0.3543 0.0000
vt 0.6654 0.3550 0.0000
vt 0.6826 0.3729 0.0000
vt 0.8364 0.7151 0.0000
vt 0.8399 0.7574 0.0000
vt 0.7020 0.3789 0.0000
vt 0.7212 0.3718 0.0000
vt 0.8392 0.6735 0.0000
vt 0.7385 0.3522 0.0000
# 540 texture coords

g Box001
usemtl _crayfishdiffuse
s off
f -540/-540/-102 -539/-539/-102 -538/-538/-102 -537/-537/-102 
f -536/-536/-101 -535/-535/-101 -534/-534/-101 -533/-533/-101 
f -532/-540/-100 -531/-539/-100 -530/-538/-100 -529/-537/-100 
f -528/-536/-99 -527/-535/-99 -526/-534/-99 -525/-533/-99 
f -540/-540/-98 -524/-532/-98 -523/-532/-98 
f -522/-531/-97 -521/-532/-97 -520/-532/-97 
f -528/-536/-96 -519/-532/-96 -518/-532/-96 
f -517/-530/-95 -516/-529/-95 -515/-529/-95 
f -537/-537/-94 -514/-529/-94 -513/-529/-94 
f -533/-533/-93 -512/-529/-93 -511/-529/-93 
f -525/-533/-92 -510/-529/-92 -509/-529/-92 
f -529/-537/-91 -508/-529/-91 -507/-529/-91 
f -518/-528/-90 -506/-527/-90 -505/-526/-90 -504/-525/-90 
f -503/-524/-89 -517/-523/-89 -506/-522/-89 -502/-521/-89 
f -501/-528/-88 -522/-527/-88 -517/-526/-88 -515/-525/-88 
f -523/-524/-87 -505/-523/-87 -522/-522/-87 -520/-521/-87 
f -500/-520/-86 -499/-519/-86 -498/-518/-86 -497/-517/-86 
f -496/-516/-85 -495/-515/-85 -499/-514/-85 -494/-513/-85 
f -493/-520/-84 -492/-519/-84 -495/-518/-84 -491/-517/-84 
f -490/-516/-83 -498/-515/-83 -492/-514/-83 -489/-513/-83 
f -511/-512/-82 -538/-511/-82 -539/-510/-82 -488/-509/-82 
f -487/-508/-81 -540/-507/-81 -537/-506/-81 -513/-505/-81 
f -507/-504/-80 -534/-503/-80 -535/-502/-80 -486/-501/-80 
f -509/-512/-79 -530/-511/-79 -531/-510/-79 -485/-509/-79 
f -540/-540/-78 -487/-500/-78 -524/-532/-78 
f -504/-499/-77 -524/-532/-77 -487/-500/-77 -527/-498/-77 
f -505/-497/-76 -523/-532/-76 -524/-532/-76 -504/-499/-76 
f -522/-531/-75 -501/-496/-75 -521/-532/-75 
f -488/-495/-74 -521/-532/-74 -501/-496/-74 -536/-494/-74 
f -539/-493/-73 -520/-532/-73 -521/-532/-73 -488/-495/-73 
f -528/-536/-72 -485/-492/-72 -519/-532/-72 
f -502/-491/-71 -519/-532/-71 -485/-492/-71 -531/-490/-71 
f -506/-489/-70 -518/-532/-70 -519/-532/-70 -502/-491/-70 
f -517/-530/-69 -503/-488/-69 -516/-529/-69 
f -486/-487/-68 -516/-529/-68 -503/-488/-68 -532/-486/-68 
f -535/-485/-67 -515/-529/-67 -516/-529/-67 -486/-487/-67 
f -537/-537/-66 -497/-484/-66 -514/-529/-66 
f -490/-483/-65 -514/-529/-65 -497/-484/-65 -498/-482/-65 
f -526/-481/-64 -513/-529/-64 -514/-529/-64 -490/-483/-64 
f -533/-533/-63 -494/-480/-63 -512/-529/-63 
f -500/-479/-62 -512/-529/-62 -494/-480/-62 -499/-478/-62 
f -538/-477/-61 -511/-529/-61 -512/-529/-61 -500/-479/-61 
f -525/-533/-60 -489/-480/-60 -510/-529/-60 
f -493/-479/-59 -510/-529/-59 -489/-480/-59 -492/-478/-59 
f -530/-477/-58 -509/-529/-58 -510/-529/-58 -493/-479/-58 
f -529/-537/-57 -491/-484/-57 -508/-529/-57 
f -496/-483/-56 -508/-529/-56 -491/-484/-56 -495/-482/-56 
f -534/-481/-55 -507/-529/-55 -508/-529/-55 -496/-483/-55 
f -528/-536/-54 -518/-528/-54 -504/-525/-54 -527/-535/-54 
f -532/-540/-53 -503/-524/-53 -502/-521/-53 -531/-539/-53 
f -536/-536/-52 -501/-528/-52 -515/-525/-52 -535/-535/-52 
f -540/-540/-51 -523/-524/-51 -520/-521/-51 -539/-539/-51 
f -538/-538/-50 -500/-520/-50 -497/-517/-50 -537/-537/-50 
f -534/-534/-49 -496/-516/-49 -494/-513/-49 -533/-533/-49 
f -530/-538/-48 -493/-520/-48 -491/-517/-48 -529/-537/-48 
f -526/-534/-47 -490/-516/-47 -489/-513/-47 -525/-533/-47 
f -533/-533/-46 -511/-512/-46 -488/-509/-46 -536/-536/-46 
f -527/-535/-45 -487/-508/-45 -513/-505/-45 -526/-534/-45 
f -529/-537/-44 -507/-504/-44 -486/-501/-44 -532/-540/-44 
f -525/-533/-43 -509/-512/-43 -485/-509/-43 -528/-536/-43 
f -484/-476/-42 -483/-475/-42 -482/-474/-42 
f -481/-473/-42 -480/-472/-42 -479/-471/-42 -478/-470/-42 
f -477/-469/-42 -481/-473/-42 -478/-470/-42 -476/-468/-42 
f -475/-467/-42 -477/-469/-42 -476/-468/-42 -474/-466/-42 
f -475/-467/-42 -474/-466/-42 -473/-465/-42 
f -472/-464/-41 -471/-463/-41 -470/-462/-41 
f -469/-461/-40 -468/-460/-40 -467/-459/-40 
f -466/-458/-42 -465/-457/-42 -464/-456/-42 -463/-455/-42 
f -462/-454/-41 -461/-453/-41 -460/-452/-41 -459/-451/-41 
f -458/-450/-41 -457/-449/-41 -456/-448/-41 -455/-447/-41 
f -458/-450/-41 -455/-447/-41 -454/-446/-41 -453/-445/-41 
f -452/-444/-41 -451/-443/-41 -450/-442/-41 -449/-441/-41 
f -448/-440/-41 -447/-440/-41 -446/-439/-41 -445/-438/-41 
f -444/-437/-41 -445/-438/-41 -446/-439/-41 
f -443/-436/-42 -442/-435/-42 -441/-434/-42 
f -440/-433/-42 -439/-432/-42 -438/-431/-42 
f -437/-430/-39 -436/-429/-39 -435/-428/-39 -468/-460/-39 
f -468/-460/-40 -435/-428/-40 -467/-459/-40 
f -434/-427/-41 -433/-426/-41 -432/-425/-41 -431/-424/-41 
f -430/-423/-41 -434/-427/-41 -431/-424/-41 -429/-422/-41 
f -428/-421/-41 -427/-420/-41 -461/-453/-41 -426/-419/-41 
f -425/-418/-41 -428/-421/-41 -426/-419/-41 -424/-417/-41 
f -423/-416/-41 -425/-418/-41 -424/-417/-41 -422/-415/-41 
f -421/-414/-41 -422/-415/-41 -424/-417/-41 -431/-424/-41 
f -431/-424/-41 -424/-417/-41 -429/-422/-41 
f -430/-423/-41 -429/-422/-41 -420/-413/-41 
f -419/-412/-42 -418/-411/-42 -417/-410/-42 -416/-409/-42 
f -415/-408/-42 -416/-409/-42 -417/-410/-42 -414/-407/-42 
f -413/-406/-42 -412/-405/-42 -411/-404/-42 
f -410/-403/-41 -409/-402/-41 -408/-401/-41 -517/-530/-41 
f -517/-530/-41 -408/-401/-41 -407/-400/-41 -406/-399/-41 
f -517/-530/-41 -406/-399/-41 -405/-398/-41 -404/-397/-41 
f -517/-530/-41 -404/-397/-41 -403/-396/-41 -402/-395/-41 
f -517/-530/-41 -402/-395/-41 -401/-394/-41 -400/-393/-41 
f -517/-530/-41 -400/-393/-41 -399/-392/-41 -470/-462/-41 
f -517/-530/-41 -470/-462/-41 -471/-463/-41 -398/-391/-41 
f -517/-530/-41 -398/-391/-41 -397/-390/-41 -396/-389/-41 
f -397/-390/-41 -395/-388/-41 -396/-389/-41 
f -517/-530/-41 -396/-389/-41 -394/-387/-41 -393/-386/-41 
f -517/-530/-41 -393/-386/-41 -392/-385/-41 -451/-443/-41 
f -517/-530/-41 -451/-443/-41 -391/-384/-41 -390/-383/-41 
f -389/-382/-41 -388/-381/-41 -387/-380/-41 -386/-379/-41 
f -385/-378/-41 -384/-377/-41 -383/-376/-41 -382/-375/-41 
f -381/-374/-41 -385/-378/-41 -382/-375/-41 -380/-373/-41 
f -379/-372/-41 -381/-374/-41 -380/-373/-41 -378/-371/-41 
f -387/-380/-41 -378/-371/-41 -380/-373/-41 -386/-379/-41 
f -377/-370/-41 -386/-379/-41 -380/-373/-41 -376/-369/-41 
f -375/-368/-41 -376/-369/-41 -380/-373/-41 -374/-367/-41 
f -373/-366/-41 -374/-367/-41 -380/-373/-41 -372/-365/-41 
f -371/-364/-41 -370/-363/-41 -369/-362/-41 -380/-373/-41 
f -380/-373/-41 -369/-362/-41 -368/-361/-41 -367/-360/-41 
f -380/-373/-41 -367/-360/-41 -366/-359/-41 -365/-358/-41 
f -380/-373/-41 -365/-358/-41 -364/-357/-41 -372/-365/-41 
f -363/-356/-41 -372/-365/-41 -364/-357/-41 -362/-355/-41 
f -361/-354/-41 -363/-356/-41 -362/-355/-41 -360/-353/-41 
f -359/-352/-41 -361/-354/-41 -360/-353/-41 -358/-351/-41 
f -357/-350/-41 -359/-352/-41 -358/-351/-41 -390/-383/-41 
f -517/-530/-41 -390/-383/-41 -358/-351/-41 -356/-349/-41 
f -506/-348/-41 -517/-530/-41 -356/-349/-41 -355/-347/-41 
f -506/-348/-41 -355/-347/-41 -354/-346/-41 -353/-345/-41 
f -506/-348/-41 -353/-345/-41 -352/-344/-41 -351/-343/-41 
f -506/-348/-41 -351/-343/-41 -350/-342/-41 -349/-341/-41 
f -506/-348/-41 -349/-341/-41 -348/-340/-41 -347/-339/-41 
f -370/-363/-41 -371/-364/-41 -346/-338/-41 -345/-337/-41 
f -345/-337/-41 -346/-338/-41 -344/-336/-41 -343/-335/-41 
f -343/-335/-41 -344/-336/-41 -347/-339/-41 -348/-340/-41 
f -506/-348/-41 -347/-339/-41 -342/-334/-41 -341/-333/-41 
f -506/-348/-41 -341/-333/-41 -340/-332/-41 -505/-331/-41 
f -505/-331/-41 -340/-332/-41 -339/-330/-41 -338/-329/-41 
f -505/-331/-41 -338/-329/-41 -337/-328/-41 -336/-327/-41 
f -505/-331/-41 -336/-327/-41 -335/-326/-41 -334/-325/-41 
f -505/-331/-41 -334/-325/-41 -333/-324/-41 -522/-531/-41 
f -522/-531/-41 -333/-324/-41 -332/-323/-41 -331/-322/-41 
f -330/-321/-41 -329/-320/-41 -328/-319/-41 -327/-318/-41 
f -383/-376/-41 -330/-321/-41 -327/-318/-41 -382/-375/-41 
f -382/-375/-41 -327/-318/-41 -326/-317/-41 -325/-316/-41 
f -382/-375/-41 -325/-316/-41 -324/-315/-41 -323/-314/-41 
f -322/-313/-41 -382/-375/-41 -323/-314/-41 -321/-312/-41 
f -322/-313/-41 -321/-312/-41 -320/-312/-41 -319/-311/-41 
f -319/-311/-41 -320/-312/-41 -318/-310/-41 -317/-309/-41 
f -317/-309/-41 -318/-310/-41 -316/-308/-41 -315/-307/-41 
f -315/-307/-41 -316/-308/-41 -314/-306/-41 -313/-305/-41 
f -332/-323/-41 -315/-307/-41 -313/-305/-41 -312/-304/-41 
f -332/-323/-41 -312/-304/-41 -331/-322/-41 
f -522/-531/-41 -331/-322/-41 -311/-303/-41 -310/-302/-41 
f -310/-302/-41 -462/-454/-41 -459/-451/-41 -309/-301/-41 
f -310/-302/-41 -309/-301/-41 -308/-300/-41 -522/-531/-41 
f -522/-531/-41 -308/-300/-41 -307/-299/-41 -453/-445/-41 
f -522/-531/-41 -453/-445/-41 -306/-298/-41 -305/-297/-41 
f -304/-296/-41 -454/-446/-41 -305/-297/-41 -306/-298/-41 
f -522/-531/-41 -305/-297/-41 -303/-295/-41 -302/-294/-41 
f -522/-531/-41 -302/-294/-41 -301/-293/-41 -300/-292/-41 
f -299/-291/-41 -298/-290/-41 -297/-289/-41 -296/-288/-41 
f -299/-291/-41 -296/-288/-41 -295/-287/-41 -294/-286/-41 
f -293/-285/-41 -292/-284/-41 -291/-283/-41 -290/-282/-41 
f -293/-285/-41 -290/-282/-41 -294/-286/-41 -289/-281/-41 
f -288/-280/-41 -289/-281/-41 -294/-286/-41 -295/-287/-41 
f -299/-291/-41 -294/-286/-41 -287/-279/-41 -286/-278/-41 
f -299/-291/-41 -286/-278/-41 -285/-277/-41 -284/-276/-41 
f -283/-275/-41 -299/-291/-41 -284/-276/-41 -282/-274/-41 
f -283/-275/-41 -282/-274/-41 -281/-273/-41 -280/-272/-41 
f -301/-293/-41 -283/-275/-41 -280/-272/-41 -279/-271/-41 
f -301/-293/-41 -279/-271/-41 -300/-292/-41 
f -522/-531/-41 -300/-292/-41 -278/-270/-41 -277/-269/-41 
f -522/-531/-41 -277/-269/-41 -276/-268/-41 -275/-267/-41 
f -522/-531/-41 -275/-267/-41 -274/-266/-41 -273/-265/-41 
f -522/-531/-41 -273/-265/-41 -272/-264/-41 -517/-530/-41 
f -517/-530/-41 -272/-264/-41 -271/-263/-41 -270/-262/-41 
f -410/-403/-41 -517/-530/-41 -270/-262/-41 -409/-402/-41 
f -292/-284/-41 -409/-402/-41 -270/-262/-41 -291/-283/-41 
f -269/-261/-41 -268/-260/-41 -267/-259/-41 -266/-258/-41 
f -266/-258/-41 -267/-259/-41 -265/-257/-41 
f -264/-256/-38 -263/-255/-38 -262/-255/-38 -261/-254/-38 
f -260/-253/-41 -456/-448/-41 -457/-449/-41 -259/-252/-41 
f -258/-251/-41 -260/-253/-41 -259/-252/-41 -257/-250/-41 
f -256/-249/-41 -258/-251/-41 -257/-250/-41 -255/-248/-41 
f -254/-247/-41 -256/-249/-41 -255/-248/-41 -253/-246/-41 
f -252/-245/-41 -253/-246/-41 -255/-248/-41 -265/-257/-41 
f -266/-258/-41 -265/-257/-41 -255/-248/-41 -251/-244/-41 
f -251/-244/-41 -255/-248/-41 -250/-243/-41 -249/-242/-41 
f -248/-242/-41 -249/-242/-41 -250/-243/-41 -247/-241/-41 
f -246/-240/-41 -432/-425/-41 -433/-426/-41 -245/-239/-41 
f -245/-239/-41 -433/-426/-41 -244/-238/-41 -250/-243/-41 
f -250/-243/-41 -244/-238/-41 -243/-237/-41 -247/-241/-41 
f -248/-242/-41 -247/-241/-41 -242/-236/-41 
f -297/-289/-41 -298/-290/-41 -241/-235/-41 -269/-261/-41 
f -269/-261/-41 -241/-235/-41 -268/-260/-41 
f -240/-234/-42 -239/-233/-42 -238/-232/-42 -237/-231/-42 
f -236/-230/-38 -237/-231/-38 -238/-232/-38 -235/-229/-38 
f -234/-228/-42 -233/-227/-42 -232/-226/-42 -231/-225/-42 
f -230/-224/-42 -435/-428/-42 -436/-429/-42 -229/-223/-42 
f -436/-429/-38 -228/-222/-38 -227/-221/-38 -229/-223/-38 
f -226/-220/-42 -230/-224/-42 -229/-223/-42 -225/-219/-42 
f -224/-218/-42 -225/-219/-42 -229/-223/-42 -223/-217/-42 
f -222/-216/-39 -224/-218/-39 -223/-217/-39 -221/-216/-39 
f -221/-216/-42 -223/-217/-42 -220/-215/-42 -219/-214/-42 
f -218/-213/-42 -219/-214/-42 -220/-215/-42 -217/-212/-42 
f -216/-211/-42 -218/-213/-42 -217/-212/-42 -215/-210/-42 
f -214/-209/-42 -216/-211/-42 -215/-210/-42 -213/-208/-42 
f -212/-207/-42 -214/-209/-42 -213/-208/-42 -211/-206/-42 
f -210/-205/-42 -209/-204/-42 -208/-203/-42 -207/-202/-42 
f -206/-201/-42 -210/-205/-42 -207/-202/-42 -205/-200/-42 
f -204/-199/-42 -206/-201/-42 -205/-200/-42 -203/-198/-42 
f -202/-197/-42 -208/-203/-42 -209/-204/-42 -201/-196/-42 
f -200/-195/-42 -202/-197/-42 -201/-196/-42 -199/-194/-42 
f -198/-193/-42 -199/-194/-42 -201/-196/-42 -197/-192/-42 
f -196/-191/-42 -197/-192/-42 -201/-196/-42 -195/-190/-42 
f -229/-223/-42 -227/-221/-42 -194/-189/-42 -201/-196/-42 
f -201/-196/-42 -194/-189/-42 -193/-188/-42 -192/-187/-42 
f -479/-471/-42 -480/-472/-42 -191/-186/-42 -192/-187/-42 
f -201/-196/-42 -192/-187/-42 -191/-186/-42 -190/-185/-42 
f -201/-196/-42 -190/-185/-42 -189/-184/-42 -188/-183/-42 
f -201/-196/-42 -188/-183/-42 -187/-182/-42 -186/-181/-42 
f -201/-196/-42 -186/-181/-42 -185/-180/-42 -195/-190/-42 
f -196/-191/-42 -195/-190/-42 -184/-179/-42 -183/-178/-42 
f -183/-178/-42 -184/-179/-42 -182/-177/-42 -181/-176/-42 
f -181/-176/-42 -182/-177/-42 -180/-175/-42 -179/-174/-42 
f -179/-174/-42 -180/-175/-42 -178/-173/-42 -177/-172/-42 
f -176/-171/-42 -175/-170/-42 -174/-169/-42 -173/-168/-42 
f -172/-167/-42 -171/-166/-42 -170/-165/-42 -495/-164/-42 
f -169/-163/-42 -172/-167/-42 -495/-164/-42 -168/-162/-42 
f -261/-254/-38 -168/-162/-38 -495/-164/-38 -264/-256/-38 
f -167/-161/-39 -264/-256/-39 -495/-164/-39 -166/-160/-39 
f -414/-407/-42 -166/-160/-42 -495/-164/-42 -415/-408/-42 
f -165/-159/-42 -415/-408/-42 -495/-164/-42 -164/-158/-42 
f -441/-434/-42 -164/-158/-42 -495/-164/-42 -443/-436/-42 
f -442/-435/-42 -443/-436/-42 -495/-164/-42 -173/-168/-42 
f -176/-171/-42 -173/-168/-42 -495/-164/-42 -163/-157/-42 
f -162/-156/-42 -163/-157/-42 -495/-164/-42 -161/-155/-42 
f -160/-154/-42 -161/-155/-42 -495/-164/-42 -159/-153/-42 
f -177/-172/-42 -159/-153/-42 -495/-164/-42 -179/-174/-42 
f -158/-152/-42 -179/-174/-42 -495/-164/-42 -492/-151/-42 
f -157/-150/-42 -158/-152/-42 -492/-151/-42 -156/-149/-42 
f -155/-148/-42 -156/-149/-42 -492/-151/-42 -154/-147/-42 
f -484/-476/-42 -154/-147/-42 -492/-151/-42 -483/-475/-42 
f -482/-474/-42 -483/-475/-42 -492/-151/-42 -203/-198/-42 
f -204/-199/-42 -203/-198/-42 -492/-151/-42 -153/-146/-42 
f -152/-145/-42 -153/-146/-42 -492/-151/-42 -151/-144/-42 
f -151/-144/-42 -492/-151/-42 -498/-531/-42 -150/-143/-42 
f -149/-142/-42 -150/-143/-42 -498/-531/-42 -148/-141/-42 
f -147/-140/-42 -148/-141/-42 -498/-531/-42 -146/-139/-42 
f -145/-138/-42 -146/-139/-42 -498/-531/-42 -499/-137/-42 
f -213/-208/-42 -145/-138/-42 -499/-137/-42 -211/-206/-42 
f -144/-136/-42 -211/-206/-42 -499/-137/-42 -232/-226/-42 
f -231/-225/-42 -232/-226/-42 -499/-137/-42 -143/-135/-42 
f -142/-134/-42 -143/-135/-42 -499/-137/-42 -412/-405/-42 
f -141/-133/-42 -412/-405/-42 -499/-137/-42 -140/-132/-42 
f -139/-131/-42 -140/-132/-42 -499/-137/-42 -138/-130/-42 
f -137/-129/-42 -136/-128/-42 -170/-165/-42 -135/-127/-42 
f -134/-126/-42 -135/-127/-42 -170/-165/-42 -171/-166/-42 
f -495/-164/-42 -170/-165/-42 -133/-125/-42 -132/-124/-42 
f -499/-137/-42 -495/-164/-42 -132/-124/-42 -131/-123/-42 
f -499/-137/-42 -131/-123/-42 -130/-122/-42 -129/-121/-42 
f -499/-137/-42 -129/-121/-42 -128/-120/-42 -127/-119/-42 
f -499/-137/-42 -127/-119/-42 -126/-118/-42 -125/-117/-42 
f -138/-130/-42 -499/-137/-42 -125/-117/-42 -124/-116/-42 
f -138/-130/-42 -124/-116/-42 -123/-115/-42 -122/-114/-42 
f -122/-114/-42 -123/-115/-42 -121/-113/-42 -120/-112/-42 
f -122/-114/-42 -120/-112/-42 -119/-112/-42 -118/-111/-42 
f -122/-114/-42 -118/-111/-42 -118/-111/-42 -238/-232/-42 
f -238/-232/-42 -118/-111/-42 -117/-110/-42 -116/-109/-42 
f -238/-232/-39 -116/-109/-39 -115/-108/-39 -235/-229/-39 
f -114/-107/-42 -235/-229/-42 -115/-108/-42 -113/-106/-42 
f -113/-106/-39 -115/-108/-39 -112/-105/-39 -111/-104/-39 
f -137/-129/-42 -111/-104/-42 -112/-105/-42 -136/-128/-42 
f -322/-103/-37 -223/-102/-37 -229/-101/-37 -382/-100/-37 
f -319/-99/-36 -220/-98/-36 -223/-102/-36 -322/-103/-36 
f -380/-97/-35 -201/-96/-35 -209/-95/-35 -371/-94/-35 
f -382/-100/-34 -229/-101/-34 -201/-96/-34 -380/-97/-34 
f -346/-93/-33 -210/-92/-33 -206/-91/-33 -344/-90/-33 
f -371/-94/-32 -209/-95/-32 -210/-92/-32 -346/-93/-32 
f -347/-89/-31 -204/-88/-31 -153/-87/-31 -342/-86/-31 
f -344/-85/-30 -206/-84/-30 -204/-88/-30 -347/-89/-30 
f -341/-83/-29 -152/-82/-29 -151/-81/-29 -340/-80/-29 
f -342/-86/-28 -153/-87/-28 -152/-82/-28 -341/-83/-28 
f -339/-79/-27 -150/-78/-27 -149/-77/-27 -338/-76/-27 
f -340/-80/-26 -151/-81/-26 -150/-78/-26 -339/-79/-26 
f -147/-75/-25 -335/-74/-25 -336/-73/-25 -337/-72/-25 
f -148/-71/-25 -147/-75/-25 -337/-72/-25 
f -338/-76/-24 -149/-77/-24 -148/-71/-24 -337/-72/-24 
f -334/-70/-23 -146/-69/-23 -145/-68/-23 -333/-67/-23 
f -335/-74/-22 -147/-75/-22 -146/-69/-22 -334/-70/-22 
f -332/-66/-21 -213/-65/-21 -215/-64/-21 -315/-63/-21 
f -333/-67/-20 -145/-68/-20 -213/-65/-20 -332/-66/-20 
f -220/-98/-19 -319/-99/-19 -317/-62/-19 -217/-61/-19 
f -315/-63/-18 -215/-64/-18 -217/-61/-18 -317/-62/-18 
f -364/-103/-17 -196/-102/-17 -183/-101/-17 -362/-100/-17 
f -365/-99/-16 -197/-98/-16 -196/-102/-16 -364/-103/-16 
f -360/-97/-35 -181/-96/-35 -179/-95/-35 -358/-94/-35 
f -362/-100/-15 -183/-101/-15 -181/-96/-15 -360/-97/-15 
f -356/-93/-33 -158/-92/-33 -157/-91/-33 -355/-90/-33 
f -358/-94/-32 -179/-95/-32 -158/-92/-32 -356/-93/-32 
f -354/-89/-31 -156/-88/-31 -155/-87/-31 -353/-86/-31 
f -355/-85/-30 -157/-84/-30 -156/-88/-30 -354/-89/-30 
f -352/-83/-29 -154/-82/-29 -484/-81/-29 -351/-80/-29 
f -353/-86/-28 -155/-87/-28 -154/-82/-28 -352/-83/-28 
f -349/-79/-27 -482/-78/-27 -203/-77/-27 -348/-76/-27 
f -351/-80/-26 -484/-81/-26 -482/-78/-26 -349/-79/-26 
f -343/-72/-25 -205/-71/-25 -207/-75/-25 -345/-74/-25 
f -348/-76/-24 -203/-77/-24 -205/-71/-24 -343/-72/-24 
f -370/-70/-23 -208/-69/-23 -202/-68/-23 -369/-67/-23 
f -345/-74/-22 -207/-75/-22 -208/-69/-22 -370/-70/-22 
f -368/-66/-21 -200/-65/-21 -199/-64/-21 -367/-63/-21 
f -369/-67/-20 -202/-68/-20 -200/-65/-20 -368/-66/-20 
f -197/-98/-19 -365/-99/-19 -366/-62/-19 -198/-61/-19 
f -367/-63/-18 -199/-64/-18 -198/-61/-18 -366/-62/-18 
f -110/-103/-37 -477/-102/-37 -475/-101/-37 -109/-100/-37 
f -108/-99/-36 -481/-98/-36 -477/-102/-36 -110/-103/-36 
f -452/-97/-35 -107/-96/-35 -160/-95/-35 -451/-94/-35 
f -109/-100/-34 -475/-101/-34 -107/-96/-34 -452/-97/-34 
f -391/-93/-33 -159/-92/-33 -177/-91/-33 -390/-90/-33 
f -451/-94/-32 -160/-95/-32 -159/-92/-32 -391/-93/-32 
f -357/-89/-31 -178/-88/-31 -180/-87/-31 -359/-86/-31 
f -390/-85/-30 -177/-84/-30 -178/-88/-30 -357/-89/-30 
f -361/-83/-29 -182/-82/-29 -184/-81/-29 -363/-80/-29 
f -359/-86/-28 -180/-87/-28 -182/-82/-28 -361/-83/-28 
f -372/-79/-27 -195/-78/-27 -185/-77/-27 -373/-76/-27 
f -363/-80/-26 -184/-81/-26 -195/-78/-26 -372/-79/-26 
f -374/-72/-25 -186/-71/-25 -187/-75/-25 -375/-74/-25 
f -373/-76/-24 -185/-77/-24 -186/-71/-24 -374/-72/-24 
f -376/-70/-23 -188/-69/-23 -189/-68/-23 -377/-67/-23 
f -375/-74/-22 -187/-75/-22 -188/-69/-22 -376/-70/-22 
f -386/-66/-21 -190/-65/-21 -191/-64/-21 -389/-63/-21 
f -377/-67/-20 -189/-68/-20 -190/-65/-20 -386/-66/-20 
f -481/-98/-19 -108/-99/-19 -388/-62/-19 -480/-61/-19 
f -389/-63/-18 -191/-64/-18 -480/-61/-18 -388/-62/-18 
f -426/-103/-17 -106/-102/-17 -105/-101/-17 -424/-100/-17 
f -461/-99/-36 -464/-98/-36 -106/-102/-36 -426/-103/-36 
f -429/-97/-35 -104/-96/-35 -469/-95/-35 -420/-94/-35 
f -424/-100/-34 -105/-101/-34 -104/-96/-34 -429/-97/-34 
f -329/-93/-33 -467/-92/-33 -435/-91/-33 -328/-90/-33 
f -420/-94/-32 -469/-95/-32 -467/-92/-32 -329/-93/-32 
f -327/-89/-31 -230/-88/-31 -226/-87/-31 -325/-86/-31 
f -328/-85/-30 -435/-84/-30 -230/-88/-30 -327/-89/-30 
f -324/-83/-29 -225/-82/-29 -224/-81/-29 -323/-80/-29 
f -325/-86/-28 -226/-87/-28 -225/-82/-28 -324/-83/-28 
f -219/-77/-14 -318/-76/-14 -320/-79/-14 -321/-79/-14 
f -221/-78/-27 -219/-77/-27 -321/-79/-27 -222/-78/-27 
f -323/-80/-26 -224/-81/-26 -222/-78/-26 -321/-79/-26 
f -316/-72/-25 -218/-71/-25 -216/-75/-25 -314/-74/-25 
f -318/-76/-24 -219/-77/-24 -218/-71/-24 -316/-72/-24 
f -312/-70/-23 -212/-69/-23 -211/-68/-23 -331/-67/-23 
f -212/-69/-13 -312/-70/-13 -313/-60/-13 -314/-74/-13 
f -214/-59/-22 -212/-69/-22 -314/-74/-22 -216/-75/-22 
f -311/-66/-21 -144/-65/-21 -232/-64/-21 -310/-63/-21 
f -331/-67/-20 -211/-68/-20 -144/-65/-20 -311/-66/-20 
f -464/-98/-19 -461/-99/-19 -462/-62/-19 -463/-61/-19 
f -310/-63/-18 -232/-64/-18 -463/-61/-18 -462/-62/-18 
f -257/-103/-37 -103/-102/-37 -102/-101/-37 -255/-100/-37 
f -259/-99/-36 -101/-98/-36 -103/-102/-36 -257/-103/-36 
f -250/-97/-35 -100/-96/-35 -99/-95/-35 -245/-94/-35 
f -255/-100/-34 -102/-101/-34 -100/-96/-34 -250/-97/-34 
f -98/-93/-33 -97/-92/-33 -96/-91/-33 -432/-90/-33 
f -245/-94/-32 -99/-95/-32 -97/-92/-32 -98/-93/-32 
f -431/-89/-31 -95/-88/-31 -94/-87/-31 -422/-86/-31 
f -432/-85/-30 -96/-84/-30 -95/-88/-30 -431/-89/-30 
f -93/-81/-12 -92/-80/-12 -423/-83/-12 -91/-81/-12 
f -90/-82/-29 -91/-81/-29 -423/-83/-29 
f -422/-86/-11 -94/-87/-11 -90/-82/-11 -423/-83/-11 
f -428/-79/-14 -89/-78/-14 -465/-77/-14 -427/-76/-14 
f -92/-80/-10 -93/-81/-10 -89/-78/-10 -428/-79/-10 
f -88/-72/-25 -466/-71/-25 -233/-75/-25 -87/-74/-25 
f -427/-76/-24 -465/-77/-24 -466/-71/-24 -88/-72/-24 
f -309/-70/-9 -234/-69/-9 -231/-68/-9 -308/-67/-9 
f -87/-74/-22 -233/-75/-22 -234/-69/-22 -309/-70/-22 
f -307/-66/-21 -143/-65/-21 -142/-64/-21 -453/-63/-21 
f -308/-67/-20 -231/-68/-20 -143/-65/-20 -307/-66/-20 
f -101/-98/-8 -259/-99/-8 -458/-62/-8 -86/-61/-8 
f -453/-63/-18 -142/-64/-18 -86/-61/-18 -458/-62/-18 
f -444/-103/-37 -85/-102/-37 -175/-101/-37 -445/-100/-37 
f -84/-99/-36 -439/-98/-36 -85/-102/-36 -444/-103/-36 
f -396/-97/-35 -176/-96/-35 -163/-95/-35 -394/-94/-35 
f -445/-100/-34 -175/-101/-34 -176/-96/-34 -396/-97/-34 
f -393/-93/-33 -162/-92/-33 -161/-91/-33 -392/-90/-33 
f -394/-94/-32 -163/-95/-32 -162/-92/-32 -393/-93/-32 
f -450/-89/-31 -83/-88/-31 -473/-87/-31 -449/-86/-31 
f -392/-85/-30 -161/-84/-30 -83/-88/-30 -450/-89/-30 
f -82/-83/-29 -474/-82/-29 -476/-81/-29 -81/-80/-29 
f -449/-86/-28 -473/-87/-28 -474/-82/-28 -82/-83/-28 
f -80/-79/-27 -478/-78/-27 -479/-77/-27 -387/-76/-27 
f -81/-80/-26 -476/-81/-26 -478/-78/-26 -80/-79/-26 
f -378/-72/-25 -192/-71/-25 -193/-75/-25 -379/-74/-25 
f -387/-76/-24 -479/-77/-24 -192/-71/-24 -378/-72/-24 
f -381/-70/-23 -194/-69/-23 -227/-68/-23 -385/-67/-23 
f -379/-74/-22 -193/-75/-22 -194/-69/-22 -381/-70/-22 
f -384/-66/-21 -228/-65/-21 -79/-64/-21 -78/-63/-21 
f -385/-67/-20 -227/-68/-20 -228/-65/-20 -384/-66/-20 
f -439/-98/-19 -84/-99/-19 -77/-62/-19 -438/-61/-19 
f -78/-63/-18 -79/-64/-18 -438/-61/-18 -77/-62/-18 
f -401/-103/-37 -415/-102/-37 -165/-101/-37 -400/-100/-37 
f -76/-99/-36 -416/-98/-36 -415/-102/-36 -401/-103/-36 
f -399/-97/-35 -164/-96/-35 -75/-95/-35 -74/-94/-35 
f -400/-100/-34 -165/-101/-34 -164/-96/-34 -399/-97/-34 
f -73/-93/-33 -72/-92/-33 -442/-91/-33 -398/-90/-33 
f -74/-94/-32 -75/-95/-32 -72/-92/-32 -73/-93/-32 
f -397/-89/-31 -173/-88/-31 -71/-87/-31 -70/-86/-31 
f -398/-85/-30 -442/-84/-30 -173/-88/-30 -397/-89/-30 
f -69/-83/-29 -68/-82/-29 -67/-81/-29 -66/-80/-29 
f -70/-86/-28 -71/-87/-28 -68/-82/-28 -69/-83/-28 
f -65/-79/-27 -64/-78/-27 -63/-77/-27 -62/-76/-27 
f -66/-80/-26 -67/-81/-26 -64/-78/-26 -65/-79/-26 
f -430/-72/-25 -61/-71/-25 -60/-75/-25 -59/-74/-25 
f -62/-76/-24 -63/-77/-24 -61/-71/-24 -430/-72/-24 
f -433/-70/-23 -58/-69/-23 -57/-68/-23 -244/-67/-23 
f -59/-74/-22 -60/-75/-22 -58/-69/-22 -433/-70/-22 
f -243/-66/-21 -56/-65/-21 -55/-64/-21 -247/-63/-21 
f -244/-67/-20 -57/-68/-20 -56/-65/-20 -243/-66/-20 
f -416/-98/-19 -76/-99/-19 -242/-62/-19 -419/-61/-19 
f -247/-63/-18 -55/-64/-18 -419/-61/-18 -242/-62/-18 
f -283/-103/-37 -122/-102/-37 -238/-101/-37 -299/-100/-37 
f -301/-99/-36 -138/-98/-36 -122/-102/-36 -283/-103/-36 
f -298/-97/-35 -239/-96/-35 -54/-95/-35 -241/-94/-35 
f -299/-100/-34 -238/-101/-34 -239/-96/-34 -298/-97/-34 
f -53/-93/-7 -52/-92/-7 -51/-91/-7 -267/-90/-7 
f -241/-94/-6 -54/-95/-6 -52/-92/-6 -53/-93/-6 
f -265/-89/-5 -50/-88/-5 -49/-87/-5 -253/-86/-5 
f -267/-85/-30 -51/-84/-30 -50/-88/-30 -265/-89/-30 
f -254/-83/-29 -48/-82/-29 -47/-81/-29 -46/-80/-29 
f -253/-86/-28 -49/-87/-28 -48/-82/-28 -254/-83/-28 
f -258/-79/-27 -45/-78/-27 -44/-77/-27 -260/-76/-27 
f -46/-80/-26 -47/-81/-26 -45/-78/-26 -258/-79/-26 
f -456/-72/-25 -43/-71/-25 -42/-75/-25 -455/-74/-25 
f -260/-76/-24 -44/-77/-24 -43/-71/-24 -456/-72/-24 
f -454/-70/-23 -41/-69/-23 -40/-68/-23 -39/-67/-23 
f -455/-74/-22 -42/-75/-22 -41/-69/-22 -454/-70/-22 
f -38/-66/-21 -37/-65/-21 -140/-64/-21 -303/-63/-21 
f -39/-67/-20 -40/-68/-20 -37/-65/-20 -38/-66/-20 
f -138/-98/-8 -301/-99/-8 -302/-62/-8 -139/-61/-8 
f -303/-63/-4 -140/-64/-4 -139/-61/-4 -302/-62/-4 
f -36/-103/-17 -131/-102/-17 -132/-101/-17 -272/-100/-17 
f -35/-99/-36 -130/-98/-36 -131/-102/-36 -36/-103/-36 
f -271/-97/-3 -133/-96/-3 -170/-95/-3 -270/-94/-3 
f -272/-100/-15 -132/-101/-15 -133/-96/-15 -271/-97/-15 
f -34/-93/-33 -136/-92/-33 -112/-91/-33 -290/-90/-33 
f -270/-94/-6 -170/-95/-6 -136/-92/-6 -34/-93/-6 
f -294/-89/-5 -115/-88/-5 -116/-87/-5 -286/-86/-5 
f -290/-85/-2 -112/-84/-2 -115/-88/-2 -294/-89/-2 
f -118/-81/-12 -284/-80/-12 -285/-83/-12 -118/-81/-12 
f -117/-82/-29 -118/-81/-29 -285/-83/-29 
f -286/-86/-28 -116/-87/-28 -117/-82/-28 -285/-83/-28 
f -33/-79/-27 -120/-78/-27 -121/-77/-27 -32/-76/-27 
f -120/-78/-26 -33/-79/-26 -284/-80/-26 -119/-78/-26 
f -118/-81/-26 -119/-78/-26 -284/-80/-26 
f -31/-72/-25 -30/-71/-25 -124/-75/-25 -279/-74/-25 
f -30/-71/-1 -31/-72/-1 -32/-76/-1 -123/-58/-1 
f -121/-77/-24 -123/-58/-24 -32/-76/-24 
f -300/-70/-9 -125/-69/-9 -126/-68/-9 -29/-67/-9 
f -279/-74/-22 -124/-75/-22 -125/-69/-22 -300/-70/-22 
f -277/-66/-21 -127/-65/-21 -128/-64/-21 -28/-63/-21 
f -29/-67/-20 -126/-68/-20 -127/-65/-20 -277/-66/-20 
f -130/-98/-8 -35/-99/-8 -275/-62/-8 -129/-61/-8 
f -28/-63/-18 -128/-64/-18 -129/-61/-18 -275/-62/-18 
f -408/-103/-37 -172/-102/-37 -169/-101/-37 -407/-100/-37 
f -409/-99/-36 -134/-98/-36 -172/-102/-36 -408/-103/-36 
f -27/-97/-35 -26/-96/-35 -25/-95/-35 -24/-94/-35 
f -407/-100/-34 -169/-101/-34 -26/-96/-34 -27/-97/-34 
f -405/-93/-33 -261/-92/-33 -23/-91/-33 -22/-90/-33 
f -24/-94/-32 -25/-95/-32 -261/-92/-32 -405/-93/-32 
f -403/-89/-31 -166/-88/-31 -414/-87/-31 -402/-86/-31 
f -22/-85/-30 -23/-84/-30 -166/-88/-30 -403/-89/-30 
f -21/-83/-29 -417/-82/-29 -20/-81/-29 -19/-80/-29 
f -402/-86/-28 -414/-87/-28 -417/-82/-28 -21/-83/-28 
f -18/-79/-27 -17/-78/-27 -16/-77/-27 -266/-76/-27 
f -19/-80/-26 -20/-81/-26 -17/-78/-26 -18/-79/-26 
f -269/-72/-25 -240/-71/-25 -237/-75/-25 -297/-74/-25 
f -266/-76/-24 -16/-77/-24 -240/-71/-24 -269/-72/-24 
f -15/-70/-23 -14/-69/-23 -114/-68/-23 -288/-67/-23 
f -297/-74/-22 -237/-75/-22 -14/-69/-22 -15/-70/-22 
f -13/-66/-21 -12/-65/-21 -137/-64/-21 -293/-63/-21 
f -288/-67/-20 -114/-68/-20 -12/-65/-20 -13/-66/-20 
f -134/-98/-19 -409/-99/-19 -292/-62/-19 -135/-61/-19 
f -293/-63/-18 -137/-64/-18 -135/-61/-18 -292/-62/-18 
f -387/-380/-41 -388/-381/-41 -108/-57/-41 -80/-56/-41 
f -80/-56/-41 -108/-57/-41 -110/-55/-41 -81/-54/-41 
f -81/-54/-41 -110/-55/-41 -109/-53/-41 -82/-52/-41 
f -82/-52/-41 -109/-53/-41 -452/-444/-41 -449/-441/-41 
f -83/-51/-42 -160/-154/-42 -107/-50/-42 -473/-465/-42 
f -473/-465/-42 -107/-50/-42 -475/-467/-42 
f -392/-385/-41 -450/-442/-41 -451/-443/-41 
f -83/-51/-42 -161/-155/-42 -160/-154/-42 
f -466/-458/-42 -463/-455/-42 -232/-226/-42 -233/-227/-42 
f -427/-420/-41 -460/-452/-41 -461/-453/-41 
f -42/-49/-42 -43/-48/-42 -11/-47/-42 -86/-46/-42 
f -411/-404/-42 -42/-49/-42 -86/-46/-42 -413/-406/-42 
f -413/-406/-39 -86/-46/-39 -142/-134/-39 
f -454/-446/-41 -304/-296/-41 -453/-445/-41 
f -304/-296/-41 -306/-298/-41 -453/-445/-41 
f -175/-170/-42 -85/-45/-42 -10/-44/-42 -9/-43/-42 
f -175/-170/-38 -9/-43/-38 -8/-42/-38 -174/-169/-38 
f -448/-440/-41 -445/-438/-41 -396/-389/-41 -395/-388/-41 
f -440/-433/-42 -10/-44/-42 -439/-432/-42 
f -7/-41/-41 -84/-40/-41 -444/-437/-41 -446/-439/-41 
f -79/-39/-42 -228/-222/-42 -436/-429/-42 -437/-430/-42 
f -79/-39/-39 -437/-430/-39 -440/-433/-39 -438/-431/-39 
f -77/-38/-41 -84/-40/-41 -7/-41/-41 
f -430/-423/-41 -420/-413/-41 -329/-320/-41 -330/-321/-41 
f -383/-376/-41 -384/-377/-41 -78/-37/-41 -330/-321/-41 
f -78/-37/-41 -77/-38/-41 -7/-41/-41 -330/-321/-41 
f -330/-321/-41 -7/-41/-41 -430/-423/-41 
f -464/-456/-42 -465/-457/-42 -89/-36/-42 -106/-35/-42 
f -106/-35/-42 -89/-36/-42 -93/-34/-42 -91/-34/-42 
f -105/-33/-42 -106/-35/-42 -91/-34/-42 -90/-32/-42 
f -105/-33/-42 -90/-32/-42 -94/-31/-42 -95/-30/-42 
f -104/-29/-42 -105/-33/-42 -95/-30/-42 -6/-28/-42 
f -95/-30/-42 -96/-27/-42 -6/-28/-42 
f -104/-29/-42 -6/-28/-42 -61/-26/-42 -469/-461/-42 
f -469/-461/-38 -61/-26/-38 -468/-460/-38 
f -248/-242/-41 -242/-236/-41 -76/-25/-41 -21/-24/-41 
f -21/-24/-41 -76/-25/-41 -401/-394/-41 -402/-395/-41 
f -413/-406/-40 -142/-134/-40 -412/-405/-40 
f -418/-411/-42 -419/-412/-42 -55/-23/-42 -5/-411/-42 
f -6/-28/-42 -96/-27/-42 -97/-22/-42 -58/-21/-42 
f -58/-21/-42 -97/-22/-42 -99/-20/-42 -57/-19/-42 
f -57/-19/-42 -99/-20/-42 -100/-18/-42 -56/-17/-42 
f -55/-23/-42 -56/-17/-42 -100/-18/-42 -5/-411/-42 
f -11/-47/-42 -43/-48/-42 -44/-16/-42 -101/-15/-42 
f -101/-15/-42 -44/-16/-42 -45/-14/-42 -103/-13/-42 
f -103/-13/-42 -45/-14/-42 -4/-12/-42 -102/-11/-42 
f -102/-11/-42 -4/-12/-42 -48/-10/-42 -49/-9/-42 
f -102/-11/-38 -49/-9/-38 -3/-8/-38 -50/-7/-38 
f -102/-11/-42 -50/-7/-42 -2/-6/-42 -100/-18/-42 
f -100/-18/-42 -2/-6/-42 -5/-411/-42 
f -418/-411/-42 -5/-411/-42 -1/-5/-42 -417/-410/-42 
f -51/-4/-42 -52/-3/-42 -16/-2/-42 -50/-7/-42 
f -50/-7/-42 -16/-2/-42 -2/-6/-42 
f -54/-1/-42 -239/-233/-42 -240/-234/-42 -52/-3/-42 
f -52/-3/-42 -240/-234/-42 -16/-2/-42 
f -293/-285/-41 -289/-281/-41 -292/-284/-41 
f -85/-45/-42 -439/-432/-42 -10/-44/-42 
# 473 polygons - 56 triangles

